<?xml version="1.0" encoding="UTF-8" standalone="no"?>
<svg
   xmlns:dc="http://purl.org/dc/elements/1.1/"
   xmlns:cc="http://creativecommons.org/ns#"
   xmlns:rdf="http://www.w3.org/1999/02/22-rdf-syntax-ns#"
   xmlns:svg="http://www.w3.org/2000/svg"
   xmlns="http://www.w3.org/2000/svg"
   viewBox="0 0 73.024361 73.013966"
   height="73.013969"
   width="73.024361"
   xml:space="preserve"
   version="1.1"
   id="svg2"><metadata
     id="metadata8"><rdf:RDF><cc:Work
         rdf:about=""><dc:format>image/svg+xml</dc:format><dc:type
           rdf:resource="http://purl.org/dc/dcmitype/StillImage" /><dc:title></dc:title></cc:Work></rdf:RDF></metadata><defs
     id="defs6"><clipPath
       id="clipPath16"
       clipPathUnits="userSpaceOnUse"><path
         id="path18"
         d="m 0,0 595.276,0 0,841.89 L 0,841.89 0,0 Z" /></clipPath><clipPath
       id="clipPath32"
       clipPathUnits="userSpaceOnUse"><path
         id="path34"
         d="m 0,0 595.276,0 0,841.89 L 0,841.89 0,0 Z" /></clipPath><clipPath
       id="clipPath80"
       clipPathUnits="userSpaceOnUse"><path
         id="path82"
         d="m 0,0 595.276,0 0,841.89 L 0,841.89 0,0 Z" /></clipPath><clipPath
       id="clipPath116"
       clipPathUnits="userSpaceOnUse"><path
         id="path118"
         d="m 0,0 595.276,0 0,841.89 L 0,841.89 0,0 Z" /></clipPath><clipPath
       id="clipPath168"
       clipPathUnits="userSpaceOnUse"><path
         id="path170"
         d="m 0,0 595.276,0 0,841.89 L 0,841.89 0,0 Z" /></clipPath><clipPath
       id="clipPath276"
       clipPathUnits="userSpaceOnUse"><path
         id="path278"
         d="m 0,0 595.276,0 0,841.89 L 0,841.89 0,0 Z" /></clipPath><clipPath
       id="clipPath292"
       clipPathUnits="userSpaceOnUse"><path
         id="path294"
         d="m 0,0 595.276,0 0,841.89 L 0,841.89 0,0 Z" /></clipPath><clipPath
       id="clipPath316"
       clipPathUnits="userSpaceOnUse"><path
         id="path318"
         d="m 0,0 595.276,0 0,841.89 L 0,841.89 0,0 Z" /></clipPath><clipPath
       id="clipPath340"
       clipPathUnits="userSpaceOnUse"><path
         id="path342"
         d="m 0,0 595.276,0 0,841.89 L 0,841.89 0,0 Z" /></clipPath><clipPath
       id="clipPath368"
       clipPathUnits="userSpaceOnUse"><path
         id="path370"
         d="m 0,0 595.276,0 0,841.89 L 0,841.89 0,0 Z" /></clipPath><clipPath
       id="clipPath412"
       clipPathUnits="userSpaceOnUse"><path
         id="path414"
         d="m 0,0 595.276,0 0,841.89 L 0,841.89 0,0 Z" /></clipPath><clipPath
       id="clipPath464"
       clipPathUnits="userSpaceOnUse"><path
         id="path466"
         d="m 0,0 595.276,0 0,841.89 L 0,841.89 0,0 Z" /></clipPath><clipPath
       id="clipPath480"
       clipPathUnits="userSpaceOnUse"><path
         id="path482"
         d="m 0,0 595.276,0 0,841.89 L 0,841.89 0,0 Z" /></clipPath><clipPath
       id="clipPath500"
       clipPathUnits="userSpaceOnUse"><path
         id="path502"
         d="m 0,0 595.276,0 0,841.89 L 0,841.89 0,0 Z" /></clipPath><clipPath
       id="clipPath516"
       clipPathUnits="userSpaceOnUse"><path
         id="path518"
         d="m 0,0 595.276,0 0,841.89 L 0,841.89 0,0 Z" /></clipPath><clipPath
       id="clipPath564"
       clipPathUnits="userSpaceOnUse"><path
         id="path566"
         d="m 0,0 595.276,0 0,841.89 L 0,841.89 0,0 Z" /></clipPath><clipPath
       id="clipPath600"
       clipPathUnits="userSpaceOnUse"><path
         id="path602"
         d="m 0,0 595.276,0 0,841.89 L 0,841.89 0,0 Z" /></clipPath><clipPath
       id="clipPath652"
       clipPathUnits="userSpaceOnUse"><path
         id="path654"
         d="m 0,0 595.276,0 0,841.89 L 0,841.89 0,0 Z" /></clipPath><clipPath
       id="clipPath760"
       clipPathUnits="userSpaceOnUse"><path
         id="path762"
         d="m 0,0 595.276,0 0,841.89 L 0,841.89 0,0 Z" /></clipPath><clipPath
       id="clipPath776"
       clipPathUnits="userSpaceOnUse"><path
         id="path778"
         d="m 0,0 595.276,0 0,841.89 L 0,841.89 0,0 Z" /></clipPath><clipPath
       id="clipPath800"
       clipPathUnits="userSpaceOnUse"><path
         id="path802"
         d="m 0,0 595.276,0 0,841.89 L 0,841.89 0,0 Z" /></clipPath><clipPath
       id="clipPath840"
       clipPathUnits="userSpaceOnUse"><path
         id="path842"
         d="m 0,0 595.276,0 0,841.89 L 0,841.89 0,0 Z" /></clipPath><clipPath
       id="clipPath872"
       clipPathUnits="userSpaceOnUse"><path
         id="path874"
         d="m 0,0 595.276,0 0,841.89 L 0,841.89 0,0 Z" /></clipPath><clipPath
       id="clipPath924"
       clipPathUnits="userSpaceOnUse"><path
         id="path926"
         d="m 0,0 595.276,0 0,841.89 L 0,841.89 0,0 Z" /></clipPath><clipPath
       id="clipPath1016"
       clipPathUnits="userSpaceOnUse"><path
         id="path1018"
         d="m 0,0 595.276,0 0,841.89 L 0,841.89 0,0 Z" /></clipPath><clipPath
       id="clipPath1032"
       clipPathUnits="userSpaceOnUse"><path
         id="path1034"
         d="m 0,0 595.276,0 0,841.89 L 0,841.89 0,0 Z" /></clipPath><clipPath
       id="clipPath1052"
       clipPathUnits="userSpaceOnUse"><path
         id="path1054"
         d="m 0,0 595.276,0 0,841.89 L 0,841.89 0,0 Z" /></clipPath><clipPath
       id="clipPath1100"
       clipPathUnits="userSpaceOnUse"><path
         id="path1102"
         d="m 0,0 595.276,0 0,841.89 L 0,841.89 0,0 Z" /></clipPath><clipPath
       id="clipPath1136"
       clipPathUnits="userSpaceOnUse"><path
         id="path1138"
         d="m 0,0 595.276,0 0,841.89 L 0,841.89 0,0 Z" /></clipPath><clipPath
       id="clipPath1188"
       clipPathUnits="userSpaceOnUse"><path
         id="path1190"
         d="m 0,0 595.276,0 0,841.89 L 0,841.89 0,0 Z" /></clipPath><clipPath
       id="clipPath1296"
       clipPathUnits="userSpaceOnUse"><path
         id="path1298"
         d="m 0,0 595.276,0 0,841.89 L 0,841.89 0,0 Z" /></clipPath><clipPath
       id="clipPath1312"
       clipPathUnits="userSpaceOnUse"><path
         id="path1314"
         d="m 0,0 595.276,0 0,841.89 L 0,841.89 0,0 Z" /></clipPath><clipPath
       id="clipPath1332"
       clipPathUnits="userSpaceOnUse"><path
         id="path1334"
         d="m 0,0 595.276,0 0,841.89 L 0,841.89 0,0 Z" /></clipPath><clipPath
       id="clipPath1380"
       clipPathUnits="userSpaceOnUse"><path
         id="path1382"
         d="m 0,0 595.276,0 0,841.89 L 0,841.89 0,0 Z" /></clipPath><clipPath
       id="clipPath1416"
       clipPathUnits="userSpaceOnUse"><path
         id="path1418"
         d="m 0,0 595.276,0 0,841.89 L 0,841.89 0,0 Z" /></clipPath><clipPath
       id="clipPath1468"
       clipPathUnits="userSpaceOnUse"><path
         id="path1470"
         d="m 0,0 595.276,0 0,841.89 L 0,841.89 0,0 Z" /></clipPath><clipPath
       id="clipPath1576"
       clipPathUnits="userSpaceOnUse"><path
         id="path1578"
         d="m 0,0 595.276,0 0,841.89 L 0,841.89 0,0 Z" /></clipPath><clipPath
       id="clipPath1592"
       clipPathUnits="userSpaceOnUse"><path
         id="path1594"
         d="m 0,0 595.276,0 0,841.89 L 0,841.89 0,0 Z" /></clipPath></defs><g
     transform="matrix(1.25,0,0,-1.25,-243.94593,620.43105)"
     id="g10"><g
       id="g4989"><g
         id="g1324"
         transform="translate(253.5604,466.2141)"><path
           d="M 0,0 -2.585,0.089 M 0.012,1.366 -2.574,1.325 m 2.536,1.406 -2.581,-0.17 M -0.151,4.075 -2.724,3.81 M -0.329,5.429 -2.885,5.036 M -0.57,6.773 -3.104,6.254 m 2.231,1.849 -2.506,-0.642 m 2.14,1.957 -2.471,-0.764 m 2.049,2.044 -2.442,-0.853 m 1.955,2.127 -2.398,-0.97 m 1.852,2.219 -2.348,-1.084 m 1.745,2.306 -2.294,-1.195 m 1.634,2.388 -2.235,-1.303 m 1.52,2.463 -2.17,-1.407 m 1.403,2.533 -2.101,-1.509 m 1.282,2.597 -2.028,-1.606 m 1.16,2.656 -1.95,-1.7 m 1.033,2.708 -1.867,-1.79 m 0.905,2.754 -1.781,-1.875 m 0.776,2.794 -1.691,-1.957 m 0.655,2.819 -1.619,-2.016 m 0.533,2.838 -1.522,-2.091 m 0.398,2.862 -1.421,-2.161 m 0.262,2.879 -1.316,-2.227 m 0.124,2.89 -1.207,-2.288 m -0.014,2.894 -1.095,-2.343 m -0.155,2.891 -0.979,-2.394 m -0.294,2.884 -0.861,-2.439 m -0.435,2.868 -0.74,-2.479 m -0.559,2.842 -0.648,-2.504 m -0.683,2.81 -0.523,-2.533 m -0.821,2.777 -0.395,-2.556 m -0.942,2.735 -0.3,-2.569 m -1.061,2.688 -0.171,-2.581 m -1.195,2.637 -0.04,-2.586 m -1.31,2.58 0.058,-2.586 m -1.423,2.516 0.189,-2.58 m -1.548,2.446 0.317,-2.567 m -1.669,2.371 0.446,-2.548 m -1.771,2.291 0.541,-2.53 m -1.868,2.207 0.666,-2.499 m -1.975,2.115 0.787,-2.464 m -2.077,2.019 0.907,-2.422 m -2.175,1.916 1.025,-2.374 m -2.253,1.817 1.111,-2.336 m -2.325,1.715 1.222,-2.279 m -2.405,1.603 1.33,-2.218 m -2.481,1.487 1.435,-2.152 m -2.551,1.369 1.537,-2.081 m -2.614,1.246 1.633,-2.005 m -2.671,1.122 1.727,-1.925 m -2.723,0.995 1.817,-1.841 m -2.759,0.876 1.883,-1.774 m -2.788,0.756 1.965,-1.682 m -2.823,0.622 2.043,-1.586 m -2.85,0.487 2.117,-1.485 m -2.873,0.35 2.187,-1.382 m -2.889,0.212 2.252,-1.274 m -2.898,0.073 2.311,-1.163 m -2.894,-0.054 2.352,-1.076 m -2.883,-0.181 2.402,-0.959 m -2.874,-0.322 2.447,-0.839 m -2.858,-0.464 2.486,-0.716 m -2.836,-0.604 2.519,-0.591 m -2.803,-0.729 2.539,-0.495 m -2.763,-0.853 2.56,-0.366 m -2.723,-0.991 2.576,-0.236 m -2.675,-1.111 2.583,-0.138 m -2.62,-1.228 2.587,-0.007 m -2.561,-1.359 2.583,0.123 m -2.495,-1.47 2.577,0.22 m -2.424,-1.578 2.562,0.35 m -2.346,-1.699 2.542,0.478 m -2.267,-1.799 2.522,0.572 m -2.181,-1.894 2.491,0.697 m -2.088,-2.001 2.454,0.819 m -1.99,-2.102 2.411,0.937 m -1.888,-2.197 2.362,1.054 m -1.78,-2.288 2.308,1.167 m -1.67,-2.372 2.249,1.277 m -1.563,-2.437 2.201,1.357 m -1.454,-2.498 2.134,1.461 m -1.335,-2.565 2.062,1.562 m -1.213,-2.628 1.985,1.658 m -1.087,-2.683 1.904,1.751 m -0.96,-2.734 1.819,1.84 m -0.83,-2.777 1.729,1.924 m -0.697,-2.816 1.634,2.005 m -0.574,-2.837 1.561,2.062 m -0.451,-2.854 1.46,2.135 m -0.314,-2.874 1.355,2.203 m -0.175,-2.888 1.246,2.266 m -0.036,-2.896 1.134,2.325 m 0.105,-2.896 1.019,2.377 m 0.232,-2.885 0.929,2.414 m 0.359,-2.867 0.808,2.457 m 0.5,-2.85 0.685,2.494 m 0.64,-2.825 0.559,2.526 m 0.765,-2.791 0.463,2.544 m 0.888,-2.75 0.334,2.565 m 1.025,-2.709 0.204,2.579 m 1.144,-2.659 0.106,2.584 m 1.261,-2.602 -0.026,2.586 m 1.391,-2.541 -0.155,2.581 m 1.501,-2.474 -0.253,2.574 m 1.608,-2.403 -0.382,2.558 m 1.728,-2.323 -0.509,2.536 m 1.841,-2.238 -0.634,2.508 m 1.936,-2.152 -0.727,2.482 m 2.025,-2.061 -0.848,2.443 m 2.125,-1.961 -0.967,2.399 m 2.219,-1.859 -1.082,2.349 m 2.308,-1.75 -1.195,2.294 m 2.391,-1.639 -1.304,2.234 m 2.467,-1.525 -1.409,2.169 m 2.526,-1.415 -1.486,2.117 m 2.579,-1.302 -1.585,2.043 m 2.639,-1.179 -1.681,1.965 m 2.694,-1.053 -1.773,1.883 m 2.743,-0.926 -1.861,1.797 m 2.785,-0.795 -1.945,1.706 m 2.822,-0.662 -2.024,1.611 m 2.851,-0.527 -2.099,1.511 m 2.867,-0.403 -2.153,1.434 m 2.876,-0.278 -2.219,1.329 m 2.887,-0.14 -2.281,1.219 m 2.894,10e-4 -2.339,1.106 m 2.893,0.141 -2.39,0.989 m 2.886,0.283 -2.436,0.87 m 2.866,0.409 -2.467,0.778 m 2.841,0.536 -2.503,0.654 m 2.815,0.676 -2.532,0.527 m 2.782,0.817 -2.556,0.398 m 2.741,0.939 -2.569,0.302 m 2.693,1.059 -2.581,0.171"
           style="fill:none;stroke:#231f20;stroke-width:0.484;stroke-linecap:butt;stroke-linejoin:miter;stroke-miterlimit:10;stroke-dasharray:none;stroke-opacity:1"
           id="path1326" /></g><g
         id="g1328"><g
           id="g1330"
           clip-path="url(#clipPath1332)"><g
             id="g1336"
             transform="translate(219.838,466.1849)"><path
               d="M 0,0 C 0.01,0.048 0.271,-0.155 0.31,-0.083 L 0.989,-0.99 c 0,0 1.061,-0.598 1.235,-0.497 0.176,0.105 0.332,0.375 0.445,0.397 0.114,0.021 0.265,0.18 0.408,0.199 0.141,0.02 0.3,0.349 0.3,0.349 0,0 0.472,-0.113 0.489,0.17 0.017,0.279 0.031,0.979 0.031,0.979 0,0 0.379,0.23 0.467,0.76 C 4.476,1.36 5.098,1.435 5.098,1.435 5.616,1.601 5.536,2.168 5.441,2.454 5.347,2.744 4.747,3.087 4.747,3.087 5.026,3.493 4.702,3.738 4.702,3.738 4.597,4.045 4.323,4.15 4.107,4.188 L 3.84,4.23 2.57,4.933 0.372,5.027 l -2.018,-2.67 -0.689,0.308 0,1.818 0.852,2.359 0.914,0.902 0.941,-0.773 3.04,-0.094 c 0,0 1.112,-0.092 1.259,0.141 0.28,0.447 0.668,1.056 0.668,1.056 L 5.372,8.009 c 0.1,-0.055 0.161,-0.117 0.161,-0.117 0,0 0.278,-0.016 0.359,-0.07 C 5.864,7.872 5.974,7.994 6.306,8.249 6.681,8.529 6.38,8.802 6.472,9.092 6.564,9.379 6.294,9.651 6.294,9.651 L 8.711,8.919 8.757,8.892 C 8.606,8.637 8.589,8.29 8.458,8.217 8.264,8.111 8.513,7.666 8.447,7.43 8.381,7.193 8.612,7.025 8.612,7.025 L 8.728,7.019 c -0.013,-0.271 0,-0.575 0.051,-0.914 0,0 0.073,-0.549 0.413,-0.962 l -10e-4,0 -0.075,-0.038 c 0,0 -0.137,-0.415 -0.285,-0.519 C 8.685,4.483 7.983,3.568 8.116,2.97 8.249,2.371 8.553,1.34 8.553,1.34 L 8.842,1.375 8.851,1.294 C 8.851,1.294 8.63,0.61 8.483,0.479 8.384,0.389 7.93,0.11 7.527,-1.083 l -0.026,0.009 c 0,0 -0.448,0.382 -1.031,-0.152 -0.404,-0.372 -0.488,-0.445 -0.502,-0.456 0,10e-4 0.001,10e-4 0.002,0.002 L 5.968,-1.682 5.967,-1.683 c -10e-4,-10e-4 -10e-4,-10e-4 0,0 C 5.57,-2.222 5.597,-2.174 5.542,-2.315 5.498,-2.437 5.311,-3.227 5.313,-3.343 5.317,-3.455 5.289,-3.697 5.229,-3.742 5.17,-3.785 4.834,-4.013 4.798,-3.965 4.762,-3.913 4.475,-3.497 4.345,-3.47 4.213,-3.443 4.006,-3.422 4.09,-3.607 4.174,-3.793 3.572,-3.698 3.988,-4.056 l 0.414,-0.358 c 0,0 0.378,-0.325 0.613,-0.375 0.234,-0.055 0.626,-0.023 0.815,0.283 L 5.887,-4.51 C 5.85,-4.736 5.803,-4.967 5.757,-5.037 5.666,-5.183 5.501,-5.703 5.562,-5.785 c 0,0 0.162,-0.506 0.423,-0.141 l 0.262,0.364 0.278,0.448 0.02,-0.006 C 6.331,-5.834 6.1,-6.563 5.975,-6.836 5.7,-7.437 5.333,-7.912 5.327,-8.331 5.323,-8.658 5.252,-9.077 5.441,-9.409 l -10e-4,0 -0.033,-0.003 C 4.591,-8.941 4.044,-9.61 3.182,-9.897 2.322,-10.183 1.394,-10.213 1.394,-10.213 l -0.01,0.09 c -0.754,0.087 -1.694,1.157 -1.694,1.157 l -1.483,1.456 c 0.416,2.02 1.316,2.14 1.316,2.14 l -0.039,0.014 c 0.415,1.094 0.727,2.912 0.865,3.441 0,0 -0.102,0.514 -0.063,0.711"
               style="fill:#ffffff;fill-opacity:1;fill-rule:nonzero;stroke:none"
               id="path1338" /></g><g
             id="g1340"
             transform="translate(220.5109,471.3276)"><path
               d="m 0,0 c 0,0 -0.351,-0.116 -0.492,-0.233 -0.14,-0.117 -0.703,-0.562 -0.82,-0.609 -0.117,-0.047 -1.007,-0.879 -1.077,-0.984 -0.071,-0.105 -0.117,-0.469 -0.071,-0.586 0.047,-0.117 0.469,-1.186 0.492,-1.288 0.024,-0.103 0.399,-0.199 0.445,-0.343 0.047,-0.145 0.091,-0.415 0.656,-0.711 l -0.111,-0.891 0.305,0.234 c 0,0 1.306,-0.069 1.446,0.188 0.141,0.258 0.599,0.699 0.944,0.867 0.344,0.168 1.141,0.696 1.375,0.797 0.234,0.1 0.726,-0.244 0.89,-0.244 0.164,0 1.312,0.251 0.82,0.927 -0.492,0.675 -0.75,1.003 -0.703,1.167 0.047,0.164 -0.225,0.726 -0.932,0.796 -0.707,0.071 -1.035,0.61 -1.035,0.61 L 0,0 Z"
               style="fill:#ffffff;fill-opacity:1;fill-rule:nonzero;stroke:none"
               id="path1342" /></g><g
             id="g1344"
             transform="translate(233.7932,476.1282)"><path
               d="m 0,0 c 0,0 -1.224,0.494 -1.546,0.565 -0.323,0.07 -1.77,-0.232 -2.226,-0.492 -0.456,-0.259 -0.703,-0.435 -0.773,-0.633 -0.07,-0.197 -0.712,-0.375 -0.712,-0.538 0,-0.164 -0.248,-0.68 -0.272,-0.82 -0.023,-0.141 -0.023,-0.797 0.094,-0.914 0.117,-0.117 0.075,-0.773 0.178,-0.913 0.103,-0.141 0.337,-1 0.782,-1.312 0.446,-0.312 1.064,-0.469 1.153,-0.633 0.089,-0.164 0.534,-1.134 0.745,-1.012 0.211,0.122 0.375,0.403 0.656,0.263 0.281,-0.141 0.96,-0.305 1.382,0.093 0.421,0.399 0.861,1.306 1.355,1.545 0.495,0.24 1.058,0.657 1.315,1.313 0.258,0.656 0.586,1.757 0.398,2.39 C 2.342,-0.466 1.742,-0.186 1.468,-0.186 1.194,-0.186 0,0 0,0"
               style="fill:#ffffff;fill-opacity:1;fill-rule:nonzero;stroke:none"
               id="path1346" /></g><g
             id="g1348"
             transform="translate(234.674,458.5799)"><path
               d="m 0,0 c 0,0 0.458,7.389 5.304,13.172 l 0.009,0.044 c 0.596,-0.124 1.204,-0.057 1.774,0.336 L 7.071,13.574 C 0.565,15.317 4.813,19.599 5.48,20.226 l 0.037,0.09 c 0.463,-0.2 0.981,0.229 2.688,-0.708 0.136,-0.075 0.907,0.461 1.221,0.468 0.512,0.012 1.726,-1.196 1.897,-1.455 0.091,-0.139 0.156,-0.724 -0.016,-1.143 -0.173,-0.418 -0.581,-0.671 -0.499,-0.845 0.484,-1.032 0.782,-2.081 1.001,-3.896 0,0 0.284,-1.562 0.373,-3.343 C 12.248,8.079 12.12,6.646 12.15,5.634 12.203,3.878 10.816,0.72 10.816,-1.161 c 0,-0.57 0.292,-3.018 1.139,-3.231 0,0 -2.838,-0.309 -4.048,-0.262 -0.511,0.018 -0.57,0.012 -1.137,0.037 -1.969,0.086 -3.995,0.195 -4.118,0.287 L 2.566,-4.355 c -0.09,0.4 -0.216,1.143 -0.012,1.55 0.289,0.574 3.44,4.962 3.226,8.076 l -0.024,0.035 -0.001,0 C 5.592,5.195 5.44,5.054 5.313,4.876 4.827,4.195 2.833,2.541 1.514,1.479 1.074,1.125 0.709,0.837 0.5,0.672 0.387,0.583 0,0 0,0"
               style="fill:#ffffff;fill-opacity:1;fill-rule:nonzero;stroke:none"
               id="path1350" /></g><g
             id="g1352"
             transform="translate(234.5559,453.0991)"><path
               d="M 0,0 C 0.067,0.249 0.187,0.473 0.25,0.606 0.346,0.811 0.562,1.6 0.558,1.893 0.554,2.193 0.78,2.789 1.1,3.552 1.42,4.314 1.681,6.892 1.681,6.892 L 1.632,6.96 c 1.32,1.062 3.313,2.716 3.799,3.397 0.127,0.178 0.279,0.319 0.443,0.43 l 0,0 0.024,-0.035 C 6.112,7.637 2.961,3.25 2.672,2.676 2.468,2.269 2.594,1.526 2.684,1.126 2.722,0.962 2.753,0.856 2.753,0.856 c 0,0 0.623,-0.879 0.628,-1.135 C 3.388,-0.533 3.008,-0.866 2.875,-0.964 2.744,-1.064 2.442,-1.171 2.288,-1.268 2.135,-1.364 1.884,-1.327 1.674,-1.314 1.464,-1.301 1.051,-1.15 1.051,-1.15 c 0,0 -0.449,-0.1 -0.742,-0.06 -0.293,0.038 -0.315,0.375 -0.354,0.78 C -0.059,-0.287 -0.038,-0.139 0,0"
               style="fill:#ffffff;fill-opacity:1;fill-rule:nonzero;stroke:none"
               id="path1354" /></g><g
             id="g1356"
             transform="translate(231.6779,476.8627)"><path
               d="M 0,0 C 0,0 0.446,0.578 1.134,0.881 1.298,0.953 1.476,1.01 1.665,1.04 2.434,1.504 3.866,2.13 5.218,2.121 5.772,2.213 6.691,2.24 7.166,2.14 L 7.163,1.985 7.166,1.977 C 5.472,1.277 4.597,-1.45 4.591,-1.552 L 4.573,-1.557 C 4.458,-1.085 4.281,-1.034 3.866,-0.921 2.922,-0.662 1.974,-0.734 1.073,-0.358 L 1.061,-0.39 C 0.823,-0.297 0.567,-0.18 0.5,-0.134 0.438,-0.094 0.219,-0.105 0.01,-0.128 L 0,-0.001 0,0 Z"
               style="fill:#ffffff;fill-opacity:1;fill-rule:nonzero;stroke:none"
               id="path1358" /></g><g
             id="g1360"
             transform="translate(236.2687,475.3103)"><path
               d="m 0,0 c 0.006,0.102 0.881,2.83 2.576,3.529 0.339,0.141 0.71,0.2 1.115,0.14 0,0 0.086,-0.021 0.231,-0.084 L 3.885,3.495 C 3.218,2.869 -1.03,-1.414 5.477,-3.156 L 5.493,-3.179 C 4.922,-3.572 4.314,-3.639 3.719,-3.514 1.85,-3.127 0.118,-0.853 0.118,-0.853 L 0.1,-0.854 c -0.013,0.24 -0.045,0.55 -0.118,0.85 L 0,0 Z"
               style="fill:#ffffff;fill-opacity:1;fill-rule:nonzero;stroke:none"
               id="path1362" /></g><g
             id="g1364"
             transform="translate(230.4712,463.8251)"><path
               d="m 0,0 c 0.395,0.82 0.651,1.625 0.591,2.275 l 0.862,1.842 -0.15,0.07 c 0.258,0.097 0.575,0.248 0.751,0.447 0.331,0.373 1.268,1.92 1.268,1.92 L 3.316,6.558 c 0.088,0.127 0.178,0.269 0.268,0.431 0,0 -0.084,0.175 0.37,0.597 l 0.094,0.105 0.155,0.121 0.102,0.102 c 0,0 0.803,-0.173 0.767,-0.424 C 5.036,7.24 4.656,5.83 4.617,5.535 4.579,5.243 4.541,4.948 4.686,4.583 4.834,4.214 5.032,3.296 5.008,2.895 4.984,2.498 4.795,1.432 4.652,0.83 4.626,0.717 4.603,0.625 4.586,0.55 L 4.551,0.519 c 0,0 -0.556,0.009 -1.478,-0.074 l 0,-0.001 C 2.293,0.374 1.249,0.237 0.058,-0.028 L 0,0 Z"
               style="fill:#ffffff;fill-opacity:1;fill-rule:nonzero;stroke:none"
               id="path1366" /></g><g
             id="g1368"
             transform="translate(233.1291,457.8081)"><path
               d="m 0,0 c -0.732,1.877 0.63,3.511 0.781,3.904 0.15,0.392 0.585,1.015 0.585,1.015 l 0.486,1.324 0.076,0.324 c 0.018,0.075 0.04,0.167 0.066,0.28 0.143,0.602 0.332,1.668 0.356,2.065 0.024,0.401 -0.174,1.319 -0.321,1.688 -0.145,0.365 -0.108,0.66 -0.069,0.952 0.038,0.295 0.418,1.705 0.454,1.955 0.036,0.251 -1.048,0.131 -1.048,0.131 l -0.07,0.121 0.082,0.172 0.167,0.45 c 0.073,0.034 0.5,0.295 0.587,0.327 0.93,0.341 1.114,1.504 1.114,1.504 0,0 0.007,0.179 -0.007,0.436 l 0.019,0.002 c 0,0 1.732,-2.274 3.6,-2.662 L 6.849,13.944 C 2.003,8.161 1.545,0.772 1.545,0.772 c 0,0 0.387,0.583 0.5,0.672 0.209,0.165 0.574,0.453 1.014,0.807 L 3.107,2.183 c 0,0 -0.261,-2.578 -0.581,-3.34 C 2.206,-1.92 1.981,-2.517 1.984,-2.816 1.989,-3.109 1.773,-3.898 1.677,-4.103 1.614,-4.236 1.494,-4.46 1.427,-4.709 l 0.455,1.359 c 0,0 -0.844,-0.328 -1.101,0.773 L 0,0 Z"
               style="fill:#ffffff;fill-opacity:1;fill-rule:nonzero;stroke:none"
               id="path1370" /></g></g></g><g
         id="g1372"
         transform="translate(233.2254,451.0326)"><path
           d="m 0,0 -7.832,-2.299 -0.029,0.666 0,0.001 0.03,0.502 L 0.037,1.097 0,0 Z"
           style="fill:#ffffff;fill-opacity:1;fill-rule:nonzero;stroke:none"
           id="path1374" /></g><g
         id="g1376"><g
           id="g1378"
           clip-path="url(#clipPath1380)"><g
             id="g1384"
             transform="translate(227.9539,469.1552)"><path
               d="M 0,0 C -0.133,0.598 0.569,1.512 0.715,1.616 0.863,1.72 1,2.134 1,2.134 l 0.076,0.038 0,0 C 1.172,2.056 1.288,1.951 1.429,1.872 l 0.458,-0.37 c 0,0 0.29,-0.054 0.357,-0.059 C 2.314,1.439 2.513,1.359 2.605,1.166 2.696,0.972 2.909,0.201 3.345,0.331 l 0.308,0.29 c 0,0 0.453,-0.179 0.538,-0.219 C 4.265,0.364 4.983,0.008 5.834,1.228 L 5.839,1.224 c 0,0 -0.937,-1.547 -1.267,-1.92 C 4.395,-0.895 4.079,-1.046 3.82,-1.143 3.594,-1.228 3.411,-1.273 3.411,-1.273 L 0.726,-1.595 0.437,-1.63 c 0,0 -0.304,1.031 -0.437,1.63"
               style="fill:#ffffff;fill-opacity:1;fill-rule:nonzero;stroke:none"
               id="path1386" /></g><g
             id="g1388"
             transform="translate(231.3406,480.327)"><path
               d="M 0,0 0,0.001 C 0.058,0.046 0.123,0.113 0.192,0.201 0.39,0.457 0.257,1.054 0.262,1.14 0.267,1.224 0.333,1.401 0.482,1.519 0.629,1.637 0.63,2.102 0.636,2.198 0.642,2.297 0.802,2.4 0.893,2.507 0.983,2.613 0.832,3.13 0.813,3.286 0.797,3.42 0.833,3.543 0.887,3.691 L 0.989,3.653 c 0,0 1.86,-0.659 3.036,-2.612 0,0 0.434,-0.757 0.437,-1.139 0.002,-0.127 0.002,-0.176 0.001,-0.184 l 0,-0.001 0,0 -0.031,-0.044 C 5.12,-0.818 5.463,-1.261 5.463,-1.261 L 5.165,-1.343 C 3.778,-1.573 2.772,-1.961 2.003,-2.425 1.814,-2.454 1.636,-2.511 1.471,-2.583 l -0.022,0.05 c -1.754,1.244 -1.438,2.52 -1.438,2.52 L 0.001,0 0,0 Z"
               style="fill:#ffffff;fill-opacity:1;fill-rule:nonzero;stroke:none"
               id="path1390" /></g><g
             id="g1392"
             transform="translate(229.9527,455.7148)"><path
               d="m 0,0 c -0.622,0.079 -0.516,0.752 -0.516,0.752 0,0 0.262,0.812 0.311,0.942 0.047,0.13 0.046,0.575 0.016,0.827 -0.03,0.252 0.236,0.874 0.484,1.226 C 0.544,4.095 0.482,4.965 0.472,5.172 0.461,5.378 0.438,7.575 0.438,7.575 l -0.039,0.022 -0.001,0 C 0.497,7.775 0.589,7.954 0.675,8.133 L 0.73,8.106 c 1.13,0.252 2.121,0.382 2.862,0.448 l 0.01,-0.12 C 3.431,6.244 2.918,5.485 2.918,5.485 2.918,5.485 1.86,3.866 1.715,3.662 1.568,3.455 1.599,2.865 1.605,2.72 1.609,2.572 1.508,2.232 1.508,2.232 1.44,1.982 1.642,1.584 1.805,1.373 1.965,1.162 2.21,1.016 2.305,0.796 2.398,0.577 2.138,0.246 1.807,0.078 1.476,-0.089 0.622,-0.079 0,0"
               style="fill:#ffffff;fill-opacity:1;fill-rule:nonzero;stroke:none"
               id="path1394" /></g><g
             id="g1396"
             transform="translate(226.6182,484.1846)"><path
               d="m 0,0 c 0.004,0.293 0.322,1.145 0.347,1.3 0.024,0.154 0.244,0.801 0.4,1.072 0.054,0.094 0.16,0.227 0.282,0.366 l 0,10e-4 C 1.262,3.006 1.554,3.297 1.652,3.374 1.798,3.49 2.74,3.716 2.74,3.716 c 0,0 1.119,0.116 1.729,-0.51 0,0 0.686,-0.028 0.884,-0.46 C 5.553,2.308 5.932,1.597 5.891,1.391 5.851,1.181 5.725,0.964 5.747,0.85 5.768,0.734 5.701,0.078 5.634,-0.101 5.626,-0.124 5.618,-0.146 5.609,-0.167 5.556,-0.315 5.52,-0.437 5.536,-0.571 5.554,-0.728 5.706,-1.244 5.615,-1.351 5.525,-1.457 5.364,-1.561 5.358,-1.659 5.353,-1.756 5.351,-2.22 5.204,-2.339 5.056,-2.457 4.99,-2.634 4.985,-2.718 4.979,-2.804 5.113,-3.401 4.914,-3.657 4.846,-3.745 4.781,-3.812 4.723,-3.857 l 0,-10e-4 C 4.612,-3.946 4.526,-3.96 4.492,-3.911 4.441,-3.842 4.302,-4.106 4.301,-4.086 L 4.24,-4.259 c 0,0 -0.047,-0.425 -0.144,-0.389 C 4,-4.614 3.844,-4.155 3.844,-4.155 l 0.174,1.016 0.128,1.257 0.005,0.058 0.983,1.601 C 5.154,-0.113 5.035,0.47 4.915,0.577 4.795,0.681 4.452,1.068 4.432,1.21 4.413,1.352 4.3,1.822 4.3,1.822 4.3,1.822 3.576,1.234 3.416,1.143 3.255,1.054 2.729,1.157 2.587,1.165 2.448,1.174 2.119,1.081 2.039,0.918 1.958,0.754 1.674,0.249 1.598,0.141 1.522,0.034 1.434,-0.494 1.433,-0.749 1.432,-0.879 1.372,-0.986 1.306,-1.086 1.244,-1.178 1.176,-1.264 1.143,-1.35 1.076,-1.528 1.164,-1.701 1.203,-1.986 1.241,-2.269 1.185,-2.743 1.149,-2.883 1.113,-3.021 0.873,-3.022 0.819,-3.019 0.762,-3.015 0.456,-3.193 0.456,-3.193 c 0,0 0.065,0.391 0.087,0.489 0.019,0.097 -0.242,0.659 -0.301,0.846 C 0.183,-1.671 -0.004,-0.298 0,0"
               style="fill:#ffffff;fill-opacity:1;fill-rule:nonzero;stroke:none"
               id="path1398" /></g><g
             id="g1400"
             transform="translate(225.9109,452.381)"><path
               d="m 0,0 -0.283,-0.067 0.275,1.972 -0.014,10e-4 c 0.009,0.017 0.169,0.287 0.233,0.578 0.075,0.335 0.306,1.17 0.556,1.557 0.249,0.389 0.731,0.427 0.731,0.427 L 1.546,3.96 2.049,0.395 1.955,0.138 1.016,2.575 0,0 Z"
               style="fill:#ffffff;fill-opacity:1;fill-rule:nonzero;stroke:none"
               id="path1402" /></g><g
             id="g1404"
             transform="translate(228.0507,483.436)"><path
               d="M 0,0 C 0.001,0.255 0.089,0.782 0.165,0.89 0.242,0.998 0.526,1.503 0.606,1.666 0.686,1.83 1.015,1.922 1.155,1.914 1.296,1.905 1.823,1.802 1.984,1.892 2.143,1.982 2.868,2.571 2.868,2.571 2.868,2.571 2.981,2.101 3,1.959 3.019,1.816 3.362,1.43 3.483,1.326 3.603,1.219 3.722,0.636 3.702,0.526 L 2.719,-1.075 2.713,-1.133 2.661,-1.128 c -0.796,-0.6 -1.764,-0.57 -1.764,-0.57 -0.624,0.164 -0.96,1.35 -0.96,1.35 l -0.062,0.011 -0.001,0 C -0.06,-0.238 -0.001,-0.13 0,0"
               style="fill:#ffffff;fill-opacity:1;fill-rule:nonzero;stroke:none"
               id="path1406" /></g></g></g><g
         id="g1408"
         transform="translate(221.204,451.2803)"><path
           d="M 0,0 4.423,1.034 4.707,1.101 6.318,1.478 6.585,1.54 7.557,1.767 12.059,0.85 4.19,-1.378 0,0 Z"
           style="fill:#ffffff;fill-opacity:1;fill-rule:nonzero;stroke:none"
           id="path1410" /></g><g
         id="g1412"><g
           id="g1414"
           clip-path="url(#clipPath1416)"><g
             id="g1420"
             transform="translate(225.1651,457.8543)"><path
               d="m 0,0 c 0.006,0.418 0.373,0.894 0.648,1.494 0.125,0.274 0.356,1.003 0.57,1.717 0.256,0.852 0.49,1.682 0.49,1.682 C 1.833,5.929 2.01,6.688 2.199,7.247 2.603,8.441 3.057,8.72 3.156,8.81 3.303,8.941 3.524,9.624 3.524,9.624 L 3.515,9.706 6.2,10.028 c 0,0 0.182,0.044 0.409,0.13 L 6.759,10.088 5.897,8.246 C 5.957,7.596 5.701,6.791 5.306,5.971 5.216,5.783 5.118,5.594 5.015,5.406 4.044,3.632 2.62,1.936 2.552,1.726 2.448,1.392 2.406,1.142 2.675,0.003 2.836,-0.682 2.582,-1.201 2.353,-1.507 L 2.292,-1.513 2.244,-1.005 c 0,0 -0.482,-0.039 -0.731,-0.427 C 1.263,-1.819 1.032,-2.654 0.957,-2.99 0.892,-3.28 0.733,-3.55 0.723,-3.567 l 0,-10e-4 C 0.421,-3.576 0.448,-3.151 0.448,-3.151 L 0.339,-1.333 C 0.239,-1.257 0.166,-1.172 0.114,-1.078 -0.075,-0.746 -0.005,-0.327 0,0"
               style="fill:#ffffff;fill-opacity:1;fill-rule:nonzero;stroke:none"
               id="path1422" /></g><g
             id="g1424"
             transform="translate(225.8063,464.5029)"><path
               d="M 0,0 -0.001,0 0.002,0.002 C 0.001,0.002 0,0.001 0,0"
               style="fill:#91b9d1;fill-opacity:1;fill-rule:nonzero;stroke:none"
               id="path1426" /></g><g
             id="g1428"
             transform="translate(225.8055,464.5031)"><path
               d="M 0,0 C 0,-0.001 -0.001,-0.001 -0.001,-0.001 L 0,0 Z"
               style="fill:#91b9d1;fill-opacity:1;fill-rule:nonzero;stroke:none"
               id="path1430" /></g><g
             id="g1432"
             transform="translate(223.8259,462.1291)"><path
               d="M 0,0 C -0.416,0.358 0.186,0.262 0.102,0.449 0.018,0.634 0.225,0.612 0.357,0.586 0.487,0.559 0.774,0.143 0.81,0.091 0.847,0.042 1.183,0.271 1.242,0.314 1.301,0.359 1.329,0.601 1.326,0.713 1.323,0.828 1.51,1.618 1.554,1.74 1.609,1.882 1.582,1.834 1.979,2.373 l 0,0 c 0,0 10e-4,0 10e-4,10e-4 l 0,0 c 0.015,0.01 0.099,0.084 0.503,0.455 0.582,0.535 1.03,0.153 1.03,0.153 L 3.539,2.973 C 3.35,2.414 3.172,1.654 3.047,0.618 c 0,0 -0.233,-0.829 -0.49,-1.682 L 2.537,-1.058 2.26,-1.506 1.997,-1.871 c -0.261,-0.364 -0.423,0.142 -0.423,0.142 -0.061,0.082 0.104,0.602 0.196,0.748 0.045,0.07 0.092,0.301 0.129,0.527 L 1.842,-0.45 C 1.653,-0.757 1.261,-0.789 1.027,-0.733 0.792,-0.683 0.414,-0.358 0.414,-0.358 L 0,0 Z"
               style="fill:#ffffff;fill-opacity:1;fill-rule:nonzero;stroke:none"
               id="path1434" /></g><g
             id="g1436"
             transform="translate(225.8046,464.5016)"><path
               d="M 0,0 C -0.001,-0.001 -0.001,-0.001 0,0.001 L 0,0 Z"
               style="fill:#91b9d1;fill-opacity:1;fill-rule:nonzero;stroke:none"
               id="path1438" /></g><g
             id="g1440"
             transform="translate(226.1322,475.8358)"><path
               d="M 0,0 C 0,0 0.046,0.228 0.052,0.333 0.059,0.438 -0.234,0.668 -0.275,0.69 -0.316,0.713 -0.243,0.855 -0.32,1 -0.395,1.138 -0.468,1.514 -0.468,1.514 -0.472,1.56 -0.48,1.6 -0.488,1.637 l 0.011,0.004 c 0,0 0.621,1.003 0.667,1.072 0,0 0.866,1.296 -0.001,3.473 -0.136,0.338 -0.654,-0.292 -0.68,-0.324 l -0.004,0.003 c 0.118,0.172 0.171,0.446 -0.015,0.868 -0.298,0.679 -1.46,1.212 -1.873,1.38 -0.114,0.046 -0.234,0.05 -0.353,0.028 l -0.017,0.134 c 0,0 -0.431,0.769 0.28,1.616 0.712,0.841 0.943,0.954 1.241,0.992 0.297,0.038 0.822,0.107 0.822,0.107 0,0 0.98,0.709 1.925,0.098 l 0,-10e-4 C 1.392,10.948 1.287,10.815 1.233,10.721 1.077,10.45 0.856,9.802 0.833,9.648 0.808,9.494 0.49,8.642 0.486,8.349 0.482,8.051 0.669,6.678 0.728,6.491 0.787,6.304 1.048,5.741 1.029,5.645 1.007,5.547 0.942,5.156 0.942,5.156 c 0,0 0.306,0.177 0.363,0.174 C 1.359,5.327 1.599,5.327 1.635,5.466 1.671,5.606 1.727,6.079 1.689,6.363 1.65,6.648 1.562,6.821 1.629,6.998 1.661,7.085 1.73,7.17 1.792,7.263 l 10e-4,0 0.063,-0.011 c 0,0 0.336,-1.186 0.959,-1.35 0,0 0.969,-0.03 1.765,0.57 L 4.632,6.467 4.504,5.21 4.33,4.194 c 0,0 0.156,-0.459 0.252,-0.493 0.097,-0.036 0.175,0.44 0.175,0.44 l 0.061,0.193 c 0.001,-0.02 0.109,0.173 0.16,0.103 0.034,-0.048 0.12,-0.034 0.23,0.054 l 10e-4,0 0.01,-0.013 c 0,0 -0.315,-1.275 1.438,-2.52 L 6.68,1.908 C 5.992,1.605 5.546,1.027 5.546,1.027 l 0,-10e-4 0.01,-0.127 C 5.381,0.88 5.214,0.854 5.151,0.843 5.012,0.814 4.518,0.605 4.381,0.614 4.243,0.622 3.901,0.335 3.516,0.221 3.133,0.106 3.343,-0.388 2.822,-0.492 2.648,-0.527 2.539,-0.632 2.463,-0.759"
               style="fill:#ffffff;fill-opacity:1;fill-rule:nonzero;stroke:none"
               id="path1442" /></g><g
             id="g1444"
             transform="translate(221.673,477.968)"><path
               d="m 0,0 c 0.054,0.389 0.373,0.939 0.545,1.004 0.173,0.061 0.6,0.353 1.433,0.155 0,0 0.32,-0.282 0.38,-0.331 C 2.419,0.783 2.699,0.694 2.87,0.547 3.039,0.397 3.063,0.249 3.07,0.196 3.078,0.142 3.291,-0.163 3.32,-0.209 3.349,-0.253 3.537,-0.791 3.543,-0.888 3.548,-0.981 3.638,-1.42 3.634,-1.485 3.63,-1.544 3.798,-2.093 3.631,-2.232 3.442,-2.388 3.672,-3.691 3.476,-3.789 3.241,-4.14 3.051,-4.692 2.694,-4.798 1.848,-5.047 0.764,-4.791 0.764,-4.791 l 0.179,1.812 C 0.908,-2.844 0.864,-2.712 0.815,-2.598 0.637,-2.199 0.569,-1.763 0.582,-1.544 0.596,-1.321 0.457,-0.977 0.311,-0.787 0.164,-0.598 -0.055,-0.386 0,0"
               style="fill:#ffffff;fill-opacity:1;fill-rule:nonzero;stroke:none"
               id="path1446" /></g><g
             id="g1448"
             transform="translate(220.4113,465.4775)"><path
               d="m 0,0 -0.386,-0.115 -0.27,0.76 C -0.539,0.861 0.412,0.713 0.501,0.79 0.619,0.897 0.9,0.759 0.937,0.895 0.971,1.036 1.139,0.997 1.314,1.127 1.492,1.256 1.528,1.394 1.641,1.415 1.756,1.436 1.934,1.594 1.968,1.677 1.999,1.761 2.255,1.803 2.399,1.847 2.542,1.897 3.039,2.204 3.185,2.307 3.332,2.41 3.473,2.402 3.611,2.368 3.75,2.329 3.791,2.074 3.791,2.074 3.703,1.544 3.324,1.315 3.324,1.315 c 0,0 -0.015,-0.701 -0.031,-0.98 -0.017,-0.282 -0.489,-0.17 -0.489,-0.17 0,0 -0.16,-0.328 -0.301,-0.349 C 2.36,-0.203 2.209,-0.361 2.096,-0.383 1.983,-0.405 1.775,-0.561 1.599,-0.666 1.425,-0.767 0.606,-0.438 0.606,-0.438 L 0,0 Z"
               style="fill:#ffffff;fill-opacity:1;fill-rule:nonzero;stroke:none"
               id="path1450" /></g><g
             id="g1452"
             transform="translate(221.2407,481.5491)"><path
               d="m 0,0 c -0.33,-0.005 -0.479,0.188 -0.525,0.284 -0.046,0.092 0.418,0.284 0.418,0.284 0,0 0.508,0.299 1.02,0.339 0.084,0.007 0.162,0.015 0.234,0.022 0.367,0.037 0.602,0.058 0.944,-0.151 l 0.412,-0.252 0.081,-0.01 10e-4,0 C 2.531,0.611 2.484,0.693 2.476,0.716 2.453,0.775 2.414,0.869 2.498,0.987 2.582,1.103 2.79,1.013 2.815,0.992 2.839,0.973 2.959,0.822 3.126,0.691 3.292,0.556 3.267,0.683 3.41,0.06 3.44,-0.07 3.448,-0.174 3.437,-0.26 3.391,-0.582 3.043,-0.578 2.599,-0.794 2.034,-1.068 1.483,-0.767 1.483,-0.767 c 0,0 -0.848,0.8 -0.902,0.882 C 0.528,0.193 0.436,0.186 0.361,0.1 0.284,0.015 0.329,0.006 0,0"
               style="fill:#ffffff;fill-opacity:1;fill-rule:nonzero;stroke:none"
               id="path1454" /></g><g
             id="g1456"
             transform="translate(222.3842,482.5244)"><path
               d="M 0,0 C 0,0 0.007,0.815 0.231,1.013 0.392,1.156 0.699,1.394 1.012,1.452 1.131,1.474 1.251,1.47 1.365,1.424 1.778,1.257 2.94,0.723 3.239,0.045 3.424,-0.378 3.371,-0.651 3.253,-0.824 3.182,-0.928 3.087,-0.995 3.004,-1.037 2.786,-1.151 2.305,-1.238 2.305,-1.238 l -0.012,0.003 c 0.011,0.085 0.004,0.19 -0.027,0.32 C 2.123,-0.293 2.148,-0.419 1.983,-0.284 1.815,-0.153 1.696,-0.002 1.672,0.017 1.646,0.037 1.438,0.128 1.355,0.011 1.27,-0.106 1.31,-0.2 1.333,-0.259 c 0.008,-0.023 0.054,-0.105 0.109,-0.2 l -10e-4,0 -0.081,0.01 -0.413,0.252 C 0.606,0.012 0.371,-0.009 0.004,-0.046 L 0,-0.001 0,0 Z"
               style="fill:#ffffff;fill-opacity:1;fill-rule:nonzero;stroke:none"
               id="path1458" /></g></g></g><g
         id="g1460"
         transform="translate(221.204,451.2803)"><path
           d="M 0,0 4.19,-1.378 4.16,-1.88 4.16,-2.056 4.189,-2.159 4.153,-2.5 -0.039,-1.125 -0.002,0 0,0 Z"
           style="fill:#ffffff;fill-opacity:1;fill-rule:nonzero;stroke:none"
           id="path1462" /></g><g
         id="g1466"
         clip-path="url(#clipPath1468)"><g
           id="g1472"
           transform="translate(221.284,473.0084)"><path
             d="m 0,0 c -0.204,0.151 -1.04,-0.058 -1.142,0.201 -0.1,0.258 -0.254,0.32 -0.801,0.71 -0.544,0.394 0.048,0.888 0.187,0.922 0.14,0.034 0.083,0.124 0.083,0.124 0,0.068 0.121,0.227 0.323,0.415 0.2,0.186 0.111,0.162 0.155,0.748 0.043,0.574 0.312,0.714 0.312,0.714 -0.132,0.66 0.203,1.167 0.203,1.167 -0.007,0.392 0.6,0.763 0.6,0.763 0.337,0.696 0.994,0.423 0.994,0.423 0.324,0.138 0.544,0.238 0.544,0.238 0,0 0.317,-0.023 0.436,0.022 0.118,0.047 0.395,0.095 0.551,0.055 0,0 0.249,0.014 0.413,-0.248 0,0 0.362,-0.03 0.413,-0.221 C 3.323,5.839 3.759,5.931 3.7,5.491 3.7,5.491 3.953,5.138 3.962,4.936 3.97,4.754 4.271,4.814 4.36,4.464 4.368,4.427 4.376,4.387 4.38,4.341 c 0,0 0.073,-0.376 0.149,-0.514 C 4.606,3.683 4.533,3.541 4.573,3.517 4.614,3.495 4.907,3.266 4.901,3.16 4.894,3.055 4.848,2.827 4.848,2.827 c 0,0 0.27,-0.271 0.178,-0.558 C 4.934,1.978 5.235,1.705 4.86,1.425 4.528,1.171 4.418,1.048 4.446,0.998 4.365,1.052 4.044,1.144 4.044,1.144 c 0,0 -0.122,0.042 -0.222,0.097 C 3.722,1.295 3.643,1.396 3.623,1.434 3.586,1.507 3.463,1.528 3.494,2.242 L 3.439,2.348 C 3.635,2.447 3.831,2.571 4.02,2.727 4.187,2.867 4.019,3.415 4.023,3.475 4.027,3.54 3.937,3.978 3.932,4.072 3.928,4.14 3.832,4.432 3.766,4.611 3.739,4.684 3.718,4.738 3.709,4.751 3.68,4.796 3.467,5.102 3.459,5.156 3.452,5.209 3.429,5.357 3.259,5.507 3.088,5.653 2.808,5.743 2.747,5.788 2.687,5.836 2.367,6.119 2.367,6.119 1.534,6.317 1.107,6.025 0.934,5.963 0.762,5.898 0.443,5.349 0.389,4.96 0.334,4.574 0.553,4.362 0.7,4.172 0.846,3.982 0.985,3.638 0.971,3.416 0.958,3.197 1.026,2.761 1.204,2.361 1.253,2.248 1.297,2.116 1.332,1.981 1.42,1.64 1.452,1.281 1.385,1.158 1.289,0.983 1.265,0.571 1.253,0.372 1.241,0.173 0.893,-0.016 0.858,-0.055 0.858,-0.055 0.203,-0.149 0,0"
             style="fill:#ffffff;fill-opacity:1;fill-rule:nonzero;stroke:none"
             id="path1474" /></g><g
           id="g1476"
           transform="translate(213.9133,484.2734)"><path
             d="m 0,0 c -0.14,0.369 0.588,0.796 0.586,0.815 -0.03,0.456 0.583,0.419 0.583,0.419 0.023,0.379 0.79,0.262 0.79,0.262 0.36,0.444 0.36,0.457 0.36,0.457 C 2.714,2.168 4.14,2.012 4.14,2.012 5.15,2.176 5.209,1.766 5.209,1.766 5.921,1.706 6.172,1.413 6.172,1.413 6.379,1.582 6.673,1.298 6.673,1.298 7.31,1.129 7.39,0.607 7.39,0.607 8.149,0.38 7.797,-0.106 7.797,-0.106 8.237,-0.512 7.818,-0.71 7.797,-0.809 7.778,-0.905 7.78,-1.088 7.383,-1.149 7.254,-1.168 7.105,-1.126 6.954,-1.058 6.639,-0.916 6.313,-0.659 6.135,-0.61 5.872,-0.538 5.914,-0.418 5.914,-0.418 5.74,-0.377 5.764,-0.537 5.68,-0.285 l -0.115,0.02 c 0,0 0.043,-0.454 -0.15,-0.641 C 5.22,-1.091 5.151,-1.086 5.023,-1.079 4.898,-1.071 4.615,-1.348 4.44,-1.453 4.264,-1.554 4.178,-1.589 4.079,-1.599 3.981,-1.605 3.771,-2.044 3.542,-1.875 c 0,0 -0.169,0.207 -0.32,0.062 C 3.073,-1.958 2.717,-2.052 2.485,-1.923 2.253,-1.797 1.891,-1.748 1.818,-1.546 1.772,-1.418 1.432,-1.308 1.186,-1.15 L 1.124,-1.181 C 0.973,-0.873 0.745,-0.583 0.428,-0.337 0.28,-0.223 0.127,-0.129 -0.027,-0.053 L 0,-0.001 0,0 Z"
             style="fill:#ffffff;fill-opacity:1;fill-rule:nonzero;stroke:none"
             id="path1478" /></g><g
           id="g1480"
           transform="translate(215.9537,476.4495)"><path
             d="M 0,0 C -0.011,0.408 0.172,0.755 0.274,0.918 0.441,1.187 0.926,1.265 0.926,1.265 L 1.381,1.144 1.827,1.026 2.102,1.06 c 0,0 0.682,-0.103 0.766,-0.109 C 2.953,0.946 3.573,0.832 3.573,0.832 3.632,0.66 3.266,0.535 3.266,0.535 L 2.605,0.426 2.81,0.089 C 3.015,-0.245 2.563,-0.512 2.563,-0.512 2.693,-1.148 2.288,-1.34 2.288,-1.34 1.666,-1.76 1.065,-1.395 0.626,-1.145 0.517,-1.083 0.418,-1.027 0.331,-0.993 -0.11,-0.819 0.009,-0.409 0,0"
             style="fill:#ffffff;fill-opacity:1;fill-rule:nonzero;stroke:none"
             id="path1482" /></g><g
           id="g1484"
           transform="translate(216.2232,460.6692)"><path
             d="m 0,0 0,0.001 c 0.398,0.02 0.889,0.158 1.48,0.515 0,0 0.402,0.273 0.725,0.786 l 10e-4,0 0.042,-0.027 c 1.426,0.189 1.69,1.9 1.738,2.459 L 3.863,2.949 c 0,0 -0.322,-1.191 -0.284,-1.146 C 3.44,1.275 3.514,1.254 3.099,0.16 2.984,-0.143 2.511,-1.256 2.417,-1.405 L 1.058,-2.804 0.935,-2.681 c -0.27,0.842 -0.241,0.716 -0.277,0.973 -0.06,0.428 -0.654,1.642 -0.654,1.642 L 0,0 Z"
             style="fill:#ffffff;fill-opacity:1;fill-rule:nonzero;stroke:none"
             id="path1486" /></g><g
           id="g1488"
           transform="translate(213.5244,476.6161)"><path
             d="m 0,0 c -0.163,0.259 -0.028,0.73 -0.028,0.73 l -0.046,0.093 0.843,0.424 c 0,0 1.256,0.436 1.944,0.742 l 0,0 0.204,-0.055 c 0,0 0.834,-0.593 0.912,-0.884 l 0,0 L 3.81,0.978 3.356,1.098 c 0,0 -0.539,-0.192 -0.653,-0.346 C 2.587,0.598 2.418,0.241 2.429,-0.167 2.439,-0.575 2.319,-0.986 2.76,-1.159 2.847,-1.194 2.946,-1.25 3.055,-1.312 L 3.037,-1.355 c 0,0 -1.19,0.046 -1.313,0.056 C 0.429,-1.202 0,0 0,0"
             style="fill:#ffffff;fill-opacity:1;fill-rule:nonzero;stroke:none"
             id="path1490" /></g><g
           id="g1492"
           transform="translate(214.7055,480.4874)"><path
             d="M 0,0 C 0.182,0.262 0.348,0.574 0.453,0.909 0.621,1.441 0.602,2.053 0.332,2.605 L 0.394,2.636 C 0.64,2.478 0.98,2.368 1.026,2.239 1.098,2.038 1.461,1.989 1.693,1.863 1.925,1.734 2.281,1.828 2.43,1.973 2.58,2.118 2.75,1.911 2.75,1.911 2.979,1.742 3.188,2.181 3.287,2.187 3.385,2.197 3.472,2.232 3.648,2.333 3.823,2.438 4.106,2.715 4.231,2.707 4.359,2.699 4.428,2.695 4.623,2.88 c 0.193,0.187 0.15,0.641 0.15,0.641 l 0.15,0.096 C 4.933,3.601 5.01,3.409 5.184,3.368 c 0,0 -0.104,-0.12 0.159,-0.192 C 5.521,3.127 5.847,2.87 6.162,2.727 l 0,0 -0.02,-0.044 c 0,0 -0.08,-0.085 -0.158,-0.291 C 5.91,2.186 5.493,1.218 5.403,0.76 5.311,0.303 4.994,0.658 4.994,0.658 4.982,0.644 4.855,0.494 4.772,0.439 4.683,0.382 4.431,0.375 4.431,0.375 4.431,0.375 4.292,0.194 4.228,0.177 4.164,0.161 4.028,0.019 4.023,-0.064 4.018,-0.147 4.012,-0.253 3.821,-0.284 3.629,-0.314 3.098,-0.03 3.098,-0.03 L 2.294,0.407 2.179,0.469 0.136,-0.061 0,0 Z"
             style="fill:#ffffff;fill-opacity:1;fill-rule:nonzero;stroke:none"
             id="path1494" /></g><g
           id="g1496"
           transform="translate(207.6566,464.6077)"><path
             d="m 0,0 c -0.269,0.212 -0.14,0.485 -0.179,1.244 -0.038,0.763 1.273,1.051 1.612,1.085 0.34,0.038 1.71,0.378 1.71,0.378 L 4.472,3.275 4.487,3.287 C 4.518,3.246 4.549,3.213 4.579,3.188 4.719,3.077 4.877,2.878 5.017,2.763 5.158,2.649 5.412,2.677 5.561,2.688 c 0.148,0.013 0.413,0.207 0.413,0.207 0.11,0.056 0.099,0.247 0.108,0.396 0.009,0.146 0.072,0.5 0.099,0.604 0.025,0.095 0.131,0.373 0.15,0.425 l 0,10e-4 c 0.096,0.123 0.347,0.192 0.407,0.228 0.065,0.037 0.167,0.137 0.24,0.143 0.075,0.004 0.299,-0.124 0.299,-0.124 0,0 0.373,-0.108 0.805,0.036 0.17,0.057 0.209,0.121 0.185,0.182 l 0.008,0.003 c 0,0 1.511,-0.392 2.165,-0.848 0.011,-0.007 0.02,-0.014 0.03,-0.022 l 0,-10e-4 -0.02,-0.028 c 0,0 0.449,-0.173 0.619,-0.861 C 11.101,2.901 11.18,2.861 11.271,2.767 11.383,2.652 11.275,2.649 11.39,2.518 11.577,2.304 11.78,2.14 11.9,1.972 12.027,1.795 12.108,1.48 12.161,1.423 l 0.024,10e-4 c 0.122,-0.473 0.24,-1.072 0.24,-1.072 l 0.128,-0.555 c 0,0 0,-10e-4 0,-10e-4 -0.049,-0.56 -0.312,-2.271 -1.738,-2.46 l -0.042,0.028 -10e-4,0 C 10.448,-3.15 10.046,-3.422 10.046,-3.422 9.456,-3.78 8.965,-3.918 8.567,-3.938 l 0,-10e-4 C 7.681,-3.984 7.261,-3.446 7.261,-3.446 l -0.159,0.028 c 0.192,0.394 0.489,1.038 0.505,1.302 0,0 0.993,0.134 1.021,0.612 0.029,0.476 0.381,1.186 -2.481,2.232 0,0 -0.849,-0.569 -1.268,-1.443 C 4.669,-1.156 4.453,-1.676 4.298,-2.277 L 4.196,-2.249 C 3.554,-1.869 2.172,-0.444 1.553,0.21 l 0,-0.001 -0.022,-0.02 c 0,0 -0.529,-0.257 -0.997,-0.562 l -0.02,0.031 c 0,0 -0.246,0.127 -0.514,0.342"
             style="fill:#ffffff;fill-opacity:1;fill-rule:nonzero;stroke:none"
             id="path1498" /></g><g
           id="g1500"
           transform="translate(211.7299,460.3131)"><path
             d="M 0,0 C -0.024,0.754 0.071,1.425 0.225,2.018 0.38,2.619 0.595,3.138 0.805,3.58 1.224,4.453 2.074,5.023 2.074,5.023 4.936,3.976 4.583,3.266 4.555,2.791 4.526,2.313 3.534,2.179 3.534,2.179 3.518,1.914 3.221,1.271 3.028,0.877 2.933,0.684 2.864,0.551 2.864,0.551 L 2.455,-0.28 c 0,0 -0.564,-1.337 -0.602,-1.608 -0.038,-0.273 0.434,-0.332 0.61,-0.374 0.176,-0.041 0.695,-0.369 0.755,-0.425 0.059,-0.056 0.391,-0.361 0.417,-0.434 0.027,-0.078 0.157,-0.181 0.157,-0.181 0.134,-0.058 0.397,-0.256 0.397,-0.256 0,0 0.599,-0.742 0.659,-0.807 C 4.907,-4.431 4.963,-4.542 4.917,-4.603 4.872,-4.662 4.745,-4.677 4.745,-4.677 L 3.942,-4.165 3.354,-3.939 C 3.616,-4.145 3.899,-4.7 3.899,-4.7 c 0,0 0.194,-0.454 0.287,-0.681 0.09,-0.227 -0.039,-0.284 -0.147,-0.328 -0.108,-0.048 -0.276,0.144 -0.276,0.144 l -0.335,0.566 -0.641,0.853 0.13,-0.39 0.138,-0.344 0.166,-0.57 c 0,0 0.114,-0.398 0.15,-0.495 C 3.407,-6.041 3.329,-6.099 3.275,-6.148 3.218,-6.198 3.022,-6.103 3.022,-6.103 L 2.377,-4.757 C 2.376,-4.769 2.368,-4.9 2.358,-5.06 2.348,-5.23 1.959,-5.395 1.883,-5.412 1.81,-5.426 1.692,-5.465 1.611,-5.563 c -0.08,-0.101 -0.15,-0.046 -0.15,-0.046 -0.154,0.084 -0.076,0.312 -0.053,0.35 0.024,0.043 0.253,0.167 0.31,0.228 C 1.774,-4.972 1.664,-4.68 1.627,-4.596 1.59,-4.509 1.204,-4.265 1.154,-4.219 1.105,-4.175 0.672,-3.81 0.672,-3.81 0.312,-3.514 0.16,-2.728 0.085,-1.813 l 0,10e-4 C 0.036,-1.229 0.019,-0.594 0,0"
             style="fill:#ffffff;fill-opacity:1;fill-rule:nonzero;stroke:none"
             id="path1502" /></g><g
           id="g1504"
           transform="translate(212.3048,476.9047)"><path
             d="M 0,0 C -0.051,0.21 0.027,0.232 0.027,0.232 0.516,0.667 0.749,1.708 0.902,2.161 1.055,2.617 1.354,2.684 1.658,2.834 1.84,2.924 2.136,3.2 2.401,3.583 L 2.537,3.522 4.579,4.052 4.694,3.989 4.679,3.962 c 0,0 0.095,-0.756 -0.325,-1.261 l 0.001,0 0.057,-0.032 c 0,0 0.009,-0.528 -0.042,-0.715 C 4.355,1.904 4.182,1.811 3.933,1.7 l -10e-4,0 C 3.244,1.394 1.989,0.958 1.989,0.958 L 1.146,0.535 0.076,-0.002 0,0 Z"
             style="fill:#ffffff;fill-opacity:1;fill-rule:nonzero;stroke:none"
             id="path1506" /></g><g
           id="g1508"
           transform="translate(207.7357,480.7021)"><path
             d="M 0,0 C -0.667,0.843 -0.159,1.573 0.788,2.611 1.631,3.534 4.192,3.795 4.759,3.838 L 4.76,3.858 C 5.017,3.851 5.584,3.801 6.151,3.518 6.304,3.442 6.458,3.349 6.605,3.235 6.923,2.988 7.151,2.698 7.302,2.39 7.572,1.838 7.59,1.226 7.423,0.695 7.318,0.359 7.152,0.047 6.97,-0.215 6.705,-0.597 6.409,-0.873 6.228,-0.964 5.923,-1.114 5.624,-1.181 5.471,-1.636 5.318,-2.09 5.085,-3.13 4.596,-3.566 c 0,0 -0.077,-0.022 -0.027,-0.231 0.015,-0.061 0.041,-0.139 0.083,-0.237 0.184,-0.431 0.789,-1.606 0.778,-2.493 -0.011,-0.886 0.149,-1.737 0.361,-2.425 0.213,-0.688 0.626,-1.515 0.794,-1.525 0.168,-0.01 0.499,-0.112 0.619,-0.25 0.118,-0.132 0.571,-0.327 0.694,-0.378 0.076,-0.029 0.254,-0.111 0.29,-0.204 0.023,-0.06 -0.015,-0.125 -0.185,-0.182 -0.432,-0.143 -0.805,-0.036 -0.805,-0.036 0,0 -0.224,0.129 -0.299,0.124 -0.073,-0.005 -0.175,-0.106 -0.24,-0.142 -0.06,-0.036 -0.311,-0.106 -0.407,-0.228 0,-10e-4 0,-10e-4 0,-0.002 -0.019,-0.051 -0.125,-0.33 -0.15,-0.424 -0.027,-0.104 -0.091,-0.459 -0.099,-0.605 -0.009,-0.148 0.002,-0.339 -0.108,-0.395 0,0 -0.265,-0.195 -0.413,-0.208 -0.149,-0.01 -0.403,-0.038 -0.544,0.076 -0.141,0.114 -0.298,0.314 -0.438,0.425 -0.03,0.025 -0.062,0.058 -0.092,0.099 -0.118,0.154 -0.226,0.421 -0.172,0.785 0.07,0.46 0.345,0.821 0.351,0.928 0.006,0.104 -0.504,1.443 -0.504,1.443 0,0 -0.781,1.057 -0.912,1.32 -0.1,0.193 -0.543,0.679 -0.84,1.808 -0.102,0.386 -0.186,0.847 -0.233,1.398 0,0 -0.11,0.32 -0.085,0.911 0.006,0.128 0.018,0.268 0.038,0.42 0.113,0.859 0.077,1.979 0.089,2.19 0.003,0.051 0.013,0.153 0.03,0.288 L 2.073,-1.304 C 1.382,-1.559 0.666,-0.84 0,0"
             style="fill:#ffffff;fill-opacity:1;fill-rule:nonzero;stroke:none"
             id="path1510" /></g><g
           id="g1512"
           transform="translate(204.7363,464.8082)"><path
             d="m 0,0 c -0.019,0.082 0.053,0.447 0.15,0.893 0.155,0.718 0.373,1.646 0.379,1.945 0.008,0.486 -0.393,2.577 -0.394,3.988 0,1.413 0.863,2.305 0.863,2.305 L 1,9.169 C 3.226,9.041 5.308,9.365 5.308,9.365 L 5.33,9.371 C 5.627,8.242 6.071,7.757 6.17,7.563 6.301,7.3 7.082,6.243 7.082,6.243 7.082,6.243 7.593,4.904 7.586,4.8 7.58,4.693 7.305,4.332 7.236,3.871 7.181,3.508 7.29,3.241 7.407,3.086 L 7.392,3.075 6.064,2.507 c 0,0 -1.371,-0.341 -1.711,-0.379 C 4.014,2.094 2.703,1.806 2.742,1.043 2.78,0.284 2.651,0.012 2.92,-0.2 3.188,-0.416 3.434,-0.542 3.434,-0.542 l 0.02,-0.031 C 3.219,-0.726 3.001,-0.891 2.87,-1.044 2.527,-1.44 2.244,-1.885 2.162,-2.273 l -0.069,0.01 c 0,0 -0.918,0.618 -1.059,0.626 -0.068,0.004 -0.311,0.045 -0.579,0.081 l 0.011,0.079 0,0.001 C 0.045,-0.896 0.047,-0.197 0,0"
             style="fill:#ffffff;fill-opacity:1;fill-rule:nonzero;stroke:none"
             id="path1514" /></g><g
           id="g1516"
           transform="translate(202.6538,474.5585)"><path
             d="M 0,0 C -0.783,1.193 -0.281,1.67 -0.211,1.729 0.102,1.43 0.534,1.13 1.031,1.198 1.882,1.317 2.828,1.637 3.274,1.317 3.718,0.994 4.472,0.19 5.35,0.771 5.981,1.187 6.569,1.605 6.85,1.808 6.96,1.888 7.022,1.933 7.022,1.933 L 7.095,1.93 C 7.07,1.339 7.18,1.019 7.18,1.019 7.227,0.468 7.311,0.007 7.413,-0.38 L 7.391,-0.386 c 0,0 -2.083,-0.324 -4.308,-0.195 -0.574,0.033 -1.159,0.097 -1.719,0.204 -0.314,0.059 -0.62,0.132 -0.913,0.222 l 0,0.001 C 0.297,-0.108 0.146,-0.056 0,0"
             style="fill:#ffffff;fill-opacity:1;fill-rule:nonzero;stroke:none"
             id="path1518" /></g><g
           id="g1520"
           transform="translate(201.9735,476.7859)"><path
             d="m 0,0 c -0.2,0.18 -0.361,0.993 -0.14,1.19 0.223,0.199 0.86,0.961 0.86,0.961 0.994,1.797 2.02,2.03 2.02,2.03 L 2.805,4.169 C 2.683,3.463 2.598,2.507 2.587,2.335 2.575,2.123 3.155,1.247 3.44,1.057 3.724,0.872 4.342,0.627 4.593,0.612 4.846,0.596 6.04,0.105 6.247,0.049 L 7.487,-0.363 7.53,-0.42 C 7.249,-0.622 6.661,-1.04 6.03,-1.456 5.152,-2.037 4.398,-1.233 3.954,-0.91 3.508,-0.59 2.563,-0.91 1.711,-1.03 1.214,-1.098 0.782,-0.797 0.47,-0.499 0.247,-0.286 0.083,-0.076 0,0"
             style="fill:#ffffff;fill-opacity:1;fill-rule:nonzero;stroke:none"
             id="path1522" /></g><g
           id="g1524"
           transform="translate(204.0042,459.9887)"><path
             d="M 0,0 C -1.463,-0.027 -1.004,1.549 -0.941,2.136 -0.878,2.724 0.113,3.282 0.425,3.318 0.585,3.338 0.901,3.303 1.188,3.264 1.455,3.228 1.698,3.187 1.766,3.183 1.907,3.174 2.825,2.557 2.825,2.557 L 2.894,2.547 C 2.882,2.491 2.875,2.437 2.871,2.384 2.846,1.966 3.218,1.607 3.38,1.482 L 3.377,1.453 C 2.965,1.493 2.484,1.482 2.368,1.489 2.171,1.501 1.095,0.889 0.91,0.646 0.888,0.616 0.856,0.583 0.819,0.549 0.557,0.31 0,0 0,0"
             style="fill:#ffffff;fill-opacity:1;fill-rule:nonzero;stroke:none"
             id="path1526" /></g><g
           id="g1528"
           transform="translate(205.5885,451.5654)"><path
             d="m 0,0 c -0.007,0.053 -0.616,1.106 -0.656,1.363 -0.041,0.254 0.42,1.382 0.646,1.873 0.226,0.494 0.23,1.027 0.247,1.309 0.017,0.278 0.255,0.491 0.255,0.491 L 0.536,5.09 C 0.558,5.069 0.581,5.049 0.603,5.029 1.701,4.092 2.649,3.021 3.934,2.411 5.219,1.795 8.049,0.673 8.352,0.568 8.415,0.547 8.534,0.502 8.684,0.442 L 8.689,0.455 9.298,0.399 c 2.498,-0.092 2.619,0.995 3.099,1.982 0.062,0.125 0.107,0.244 0.138,0.358 l 0.094,-0.028 c 0,0 0.284,-0.354 0.581,-0.856 0.297,-0.503 0.119,-1.527 0.088,-1.882 C 13.267,-0.386 13.042,-0.424 12.544,-0.994 12.045,-1.568 10.899,-1.35 10.369,-1.203 9.839,-1.056 8.601,-0.792 7.9,-0.716 7.195,-0.646 5.782,0.21 5.432,0.369 5.083,0.527 3.456,1.891 3.267,2.071 3.077,2.25 2.62,2.35 2.432,2.386 2.244,2.419 1.055,1.581 0.955,1.512 0.856,1.443 0.7,1.319 0.65,1.182 0.6,1.051 0.659,0.972 0.715,0.842 0.771,0.711 0.908,0.715 1.012,0.676 1.113,0.64 1.311,0.573 1.424,0.536 1.537,0.497 1.219,0.115 1.154,0.086 1.089,0.06 1.104,-0.056 1.099,-0.14 1.094,-0.224 0.922,-0.27 0.858,-0.285 0.793,-0.302 0.605,-0.269 0.553,-0.276 0.499,-0.285 0.238,-0.247 0.207,-0.236 0.177,-0.226 0.007,-0.055 0,0"
             style="fill:#ffffff;fill-opacity:1;fill-rule:nonzero;stroke:none"
             id="path1530" /></g><g
           id="g1532"
           transform="translate(204.5609,479.1213)"><path
             d="M 0,0 C 0.01,0.172 0.095,1.127 0.218,1.834 0.245,1.992 0.275,2.139 0.305,2.26 0.47,2.923 1.033,3.144 1.426,3.373 1.82,3.605 2.25,4.462 2.687,4.733 c 0.44,0.269 1.592,0.493 2.49,0.694 0.897,0.199 2.616,0.012 2.616,0.012 0,0 0.052,0.003 0.142,0 L 7.934,5.419 C 7.367,5.376 4.806,5.115 3.963,4.192 3.016,3.153 2.508,2.423 3.175,1.581 3.841,0.741 4.557,0.022 5.247,0.277 L 5.344,0.265 C 5.328,0.13 5.318,0.028 5.315,-0.023 5.302,-0.234 5.339,-1.354 5.226,-2.213 5.206,-2.365 5.193,-2.505 5.188,-2.633 l -0.073,0.004 c 0,0 -0.063,-0.046 -0.173,-0.126 L 4.9,-2.698 3.659,-2.287 C 3.452,-2.231 2.258,-1.739 2.005,-1.724 1.754,-1.709 1.136,-1.463 0.852,-1.278 0.567,-1.089 -0.013,-0.212 0,0"
             style="fill:#ffffff;fill-opacity:1;fill-rule:nonzero;stroke:none"
             id="path1534" /></g><g
           id="g1536"
           transform="translate(205.5017,459.17)"><path
             d="M 0,0 C 0.413,-0.41 1.441,-1.074 2.688,-1.149 4.058,-1.23 5.505,-1.43 6.313,-0.67 6.389,-1.585 6.541,-2.371 6.9,-2.667 c 0,0 0.433,-0.365 0.482,-0.408 0.051,-0.047 0.437,-0.291 0.473,-0.378 0.037,-0.084 0.147,-0.376 0.091,-0.435 -0.057,-0.061 -0.286,-0.185 -0.31,-0.228 -0.022,-0.038 -0.101,-0.266 0.053,-0.35 0,0 0.07,-0.055 0.151,0.046 0.08,0.098 0.198,0.137 0.272,0.151 0.075,0.017 0.464,0.182 0.475,0.352 0.009,0.16 0.017,0.291 0.018,0.303 L 9.251,-4.96 c 0,0 0.195,-0.095 0.252,-0.044 0.055,0.048 0.132,0.106 0.096,0.202 -0.036,0.098 -0.15,0.495 -0.15,0.495 l -0.166,0.57 -0.137,0.344 -0.13,0.39 0.64,-0.853 0.336,-0.566 c 0,0 0.167,-0.192 0.275,-0.144 0.108,0.044 0.237,0.101 0.147,0.328 -0.093,0.227 -0.286,0.681 -0.286,0.681 0,0 -0.284,0.555 -0.546,0.761 l 0.588,-0.226 0.803,-0.511 c 0,0 0.127,0.014 0.173,0.073 0.045,0.062 -0.011,0.172 -0.07,0.238 -0.059,0.066 -0.659,0.807 -0.659,0.807 0,0 -0.262,0.198 -0.396,0.256 0,0 -0.13,0.103 -0.158,0.181 -0.026,0.073 -0.358,0.378 -0.417,0.434 -0.06,0.056 -0.578,0.384 -0.755,0.425 -0.176,0.042 -0.648,0.101 -0.61,0.374 0.039,0.271 0.603,1.608 0.603,1.608 l 0.408,0.831 c 0,0 0.069,0.133 0.165,0.326 L 9.416,1.991 c 0,0 0.42,-0.537 1.305,-0.492 l 0.005,-0.066 c 0,0 0.594,-1.214 0.654,-1.641 0.035,-0.258 0.366,-1.325 0.635,-2.167 0.174,-0.543 0.324,-0.992 0.352,-1.07 0.059,-0.166 0.422,-0.594 0.288,-1.283 -0.009,-0.045 -0.02,-0.091 -0.033,-0.138 -0.031,-0.113 -0.076,-0.232 -0.138,-0.358 -0.48,-0.987 -0.601,-2.074 -3.099,-1.981 L 8.776,-7.149 8.771,-7.163 C 8.621,-7.102 8.502,-7.058 8.439,-7.036 8.135,-6.931 5.306,-5.81 4.021,-5.194 2.736,-4.583 1.788,-3.513 0.69,-2.575 0.667,-2.556 0.644,-2.536 0.623,-2.515 -0.39,-1.571 -0.03,-0.029 -0.03,-0.029 L 0,-0.001 0,0 Z"
             style="fill:#ffffff;fill-opacity:1;fill-rule:nonzero;stroke:none"
             id="path1538" /></g><g
           id="g1540"
           transform="translate(202.0789,464.0149)"><path
             d="m 0,0 c -0.526,0.032 -0.351,0.28 -0.351,0.28 0.072,0.101 0.174,0.392 0.234,0.5 1.073,1.492 0.816,4.095 0.796,6.06 -0.021,2.112 1.251,3.278 1.251,3.278 l 0.009,0.049 C 2.499,10.059 3.083,9.996 3.658,9.963 L 3.656,9.924 c 0,0 -0.863,-0.892 -0.864,-2.305 C 2.793,6.209 3.194,4.117 3.186,3.632 3.181,3.333 2.962,2.404 2.807,1.686 L 2.63,0.862 2.851,-0.321 c 0,0 0.187,-0.464 -0.589,-0.381 C 1.833,-0.917 1.212,-0.701 0.956,-0.41 0.699,-0.12 0.525,-0.031 0,0"
             style="fill:#ffffff;fill-opacity:1;fill-rule:nonzero;stroke:none"
             id="path1542" /></g><g
           id="g1544"
           transform="translate(205.3966,459.2852)"><path
             d="m 0,0 c -0.314,0.383 -0.403,1.234 -0.403,1.234 l -0.17,0.019 0,0 c 0.037,0.033 0.068,0.066 0.091,0.096 0.184,0.243 1.261,0.856 1.458,0.844 C 1.091,2.185 1.573,2.196 1.985,2.157 L 1.988,2.186 C 1.826,2.31 1.454,2.67 1.479,3.088 1.482,3.141 1.49,3.195 1.502,3.25 1.583,3.638 1.866,4.083 2.209,4.48 2.34,4.632 2.559,4.797 2.794,4.949 3.262,5.255 3.791,5.511 3.791,5.511 l 0.022,0.021 0,0 C 4.432,4.879 5.814,3.454 6.456,3.073 L 6.558,3.046 C 6.404,2.453 6.309,1.782 6.333,1.028 6.352,0.434 6.369,-0.201 6.418,-0.784 l 0,-0.001 C 5.61,-1.545 4.163,-1.346 2.793,-1.264 1.546,-1.189 0.519,-0.525 0.105,-0.115 0.064,-0.074 0.029,-0.035 0,0"
             style="fill:#ffffff;fill-opacity:1;fill-rule:nonzero;stroke:none"
             id="path1546" /></g><g
           id="g1548"
           transform="translate(200.4994,464.4145)"><path
             d="M 0,0 C 0,0 -0.308,0.03 -0.234,0.098 -0.159,0.164 0.223,0.783 0.302,0.921 0.334,0.977 0.489,1.399 0.625,1.697 0.819,2.119 0.927,2.626 0.927,2.626 1.21,3.358 1.26,3.682 1.26,3.682 L 1.477,6.808 C 1.523,8.625 2.59,9.938 2.59,9.938 L 2.606,9.989 C 2.899,9.9 3.205,9.826 3.518,9.767 L 3.509,9.719 c 0,0 -1.271,-1.167 -1.251,-3.279 C 2.278,4.475 2.785,2.689 1.97,1.229 L 1.667,0.617 c 0,0 -0.408,-1.016 -0.409,-1.017 C 1.222,-0.418 0.923,-0.179 0.682,-0.254 0.439,-0.329 0.048,-0.18 0,0"
             style="fill:#ffffff;fill-opacity:1;fill-rule:nonzero;stroke:none"
             id="path1550" /></g><g
           id="g1552"
           transform="translate(199.1928,465.3358)"><path
             d="m 0,0 c -0.581,0.275 0.38,1.156 0.38,1.156 l 0.771,1.082 c 0,0 0.565,0.783 0.761,1.58 0.227,0.285 0.324,2.4 0.324,2.4 C 2.527,8.591 3.461,9.223 3.461,9.223 3.607,9.167 3.758,9.115 3.912,9.069 l 0,-0.001 -0.015,-0.051 c 0,0 -1.067,-1.314 -1.113,-3.13 L 2.567,2.761 c 0,0 -0.051,-0.325 -0.334,-1.057 0,0 -0.148,-0.525 -0.341,-0.948 l -0.79,-1.541 c 0,0 -0.361,0.263 -0.595,0.419 C 0.204,-0.438 0,0 0,0"
             style="fill:#ffffff;fill-opacity:1;fill-rule:nonzero;stroke:none"
             id="path1554" /></g><g
           id="g1556"
           transform="translate(245.5768,475.2188)"><path
             d="m 0,0 c 0.544,-1.358 0.89,-3.243 1.189,-5.823 0.576,-4.96 -0.722,-9.407 -1.125,-11.052 -0.404,-1.644 0.25,-3.98 0.987,-4.165 0,0 -2.825,-0.31 -4.035,-0.263 -0.512,0.019 -0.571,0.013 -1.139,0.038 -1.97,0.086 -3.996,0.195 -4.119,0.287 m -27.297,19.936 c 0,0 -2.083,-0.325 -4.31,-0.196 -0.575,0.033 -1.16,0.097 -1.72,0.204 -0.314,0.06 -0.62,0.133 -0.913,0.223 l 0,0 c -0.155,0.046 -0.305,0.098 -0.452,0.155 0,0 -0.935,-0.34 -1.225,-2.714 0,0 -0.119,-2.345 -0.422,-3.28 -0.574,-1.229 -1.832,-2.51 -1.832,-2.51 0,0 -0.342,-0.379 0.075,-0.755 l 0.91,-0.629 m 1.599,-0.663 c -0.036,-0.019 -1.396,0.3 -1.443,0.481 0,0 -0.048,0.106 0.026,0.174 0.075,0.066 0.302,0.318 0.381,0.456 0.031,0.056 0.046,0.082 0.182,0.379 0.194,0.423 0.521,1.147 0.521,1.147 0.283,0.733 0.236,0.863 0.236,0.863 l 0.315,4.005 c 0.045,1.818 1.113,2.84 1.113,2.84 m 20.954,7.367 c 0,0 -0.115,0.192 -0.206,0.35 -0.055,0.095 -0.101,0.178 -0.109,0.2 -0.023,0.059 -0.063,0.153 0.022,0.271 0.084,0.117 0.292,0.026 0.317,0.006 0.024,-0.02 0.144,-0.171 0.311,-0.302 0.166,-0.134 0.141,-0.008 0.284,-0.631 0.031,-0.13 0.038,-0.235 0.027,-0.32 -0.046,-0.322 -0.427,-0.261 -0.838,-0.534 -0.531,-0.354 -1.117,0.027 -1.117,0.027 0,0 -0.849,0.8 -0.903,0.882 -0.053,0.078 -0.144,0.071 -0.219,-0.015 -0.077,-0.086 -0.032,-0.094 -0.362,-0.1 -0.329,-0.005 -0.479,0.188 -0.525,0.284 -0.046,0.092 0.418,0.284 0.418,0.284 0,0 0.508,0.299 1.02,0.339 0.085,0.007 0.163,0.016 0.235,0.023 0.367,0.036 0.602,0.057 0.944,-0.152 l 0.475,-0.282 m 6.643,-18.327 c 0,0 -0.032,-2.645 -0.021,-2.851 0.01,-0.208 0.072,-1.078 -0.177,-1.426 -0.249,-0.352 -0.514,-0.975 -0.485,-1.228 0.03,-0.251 0.031,-0.698 -0.016,-0.827 -0.048,-0.13 -0.31,-0.943 -0.31,-0.943 0,0 -0.107,-0.674 0.516,-0.752 0.622,-0.079 1.477,-0.089 1.808,0.078 0.331,0.167 0.591,0.5 0.498,0.718 -0.095,0.22 -0.34,0.366 -0.5,0.577 -0.163,0.211 -0.365,0.61 -0.298,0.86 0,0 0.102,0.34 0.098,0.489 -0.006,0.145 -0.037,0.736 0.109,0.942 0.145,0.204 1.205,1.824 1.205,1.824 0,0 0.513,0.76 0.684,2.952 m -3.027,-0.346 c 1.191,0.265 2.236,0.402 3.016,0.473 l 10e-4,0 c 0.922,0.083 1.478,0.075 1.478,0.075 m -12.546,-2.247 c -0.083,-1.219 -0.174,-2.101 -0.174,-2.101 -0.187,-1.718 -1.078,-3.948 -1.078,-3.948 0,0 0.929,0.031 1.789,0.316 0.863,0.288 1.41,0.957 2.226,0.486 m -7.086,1.744 c 0,0 2.311,-2.45 3.066,-2.538 m 22.67,-2.089 c 0,0 -2.484,0.477 -2.585,4.451 m -15.312,24.997 0.41,-1.585 m -8.63,-4.347 0.275,0.034 c 0,0 0.682,-0.103 0.766,-0.108 0.085,-0.005 0.705,-0.12 0.705,-0.12 0.06,-0.172 -0.306,-0.297 -0.306,-0.297 l -0.663,-0.109 0.206,-0.337 c 0.205,-0.334 -0.247,-0.602 -0.247,-0.602 0.13,-0.636 -0.275,-0.828 -0.275,-0.828 -0.623,-0.42 -1.224,-0.055 -1.664,0.195 -0.109,0.062 -0.207,0.118 -0.295,0.152 -0.441,0.174 -0.321,0.585 -0.331,0.994 -0.011,0.408 0.158,0.765 0.274,0.919 0.114,0.154 0.653,0.346 0.653,0.346 l 0.455,-0.12 0.447,-0.119 0.012,-0.003 c 0,0 0.207,-0.323 0.112,-0.386 -0.098,-0.067 -0.451,-0.221 -0.6,-0.141 l -0.151,0.078 m 6.179,-10.472 c 0,0 -0.472,0.125 -0.583,0.317 m 7.589,16.547 c 0,0 0.409,-0.245 0.833,-0.252 m -2.54,0.968 c 0,0 0.408,-0.245 0.832,-0.252 M -26.346,7.475 -25.648,7.009 M -3.821,-3.062 c -6.51,1.743 -2.26,6.028 -1.592,6.655 m 0.721,-7.123 -1.032,-4.049 m -8.842,3.179 1.142,0.238 m -0.645,-0.174 0.131,-0.145 m -1.027,12.548 -0.044,-0.195 m -1.567,0.784 -0.017,-0.127 m -9.454,-1.333 -0.108,-0.16 m 3.619,-15.631 -0.151,-0.128 m 0.307,11.461 0.053,-0.078 m -0.537,-0.173 c 0,0 0.48,0.65 0.715,0.463 m 1.011,-1.624 c 0,0 0.441,0.097 0.686,0.266 m 4.114,5.95 c 0,0 -0.022,-0.074 0.259,-0.091 m -0.538,-0.284 c 0,0 0.179,-0.15 0.436,-0.166 m -3.596,-20.043 c 0,0 -0.03,-0.25 -0.073,-0.506 -0.037,-0.227 -0.084,-0.458 -0.13,-0.527 -0.091,-0.147 -0.256,-0.667 -0.195,-0.749 0,0 0.162,-0.507 0.423,-0.142 l 0.263,0.365 0.278,0.448 m -0.687,1.933 c -0.017,-0.155 -0.151,-0.722 0.192,-0.774 0,0 0.322,-0.007 0.341,0.313 0.02,0.32 0.169,0.473 0.21,0.606 m 0.92,1.965 c 0,0 -0.449,0.382 -1.031,-0.153 -0.404,-0.371 -0.488,-0.445 -0.503,-0.456 l 0,10e-4 c 0,-10e-4 -0.001,-10e-4 -0.001,-10e-4 l 0,-0.001 c -0.001,-10e-4 -0.001,-10e-4 0,0.001 l 0.001,10e-4 0.002,0.002 0,0 m 0,0 c -0.001,-0.001 -0.002,-0.002 -0.002,-0.003 m -0.001,-0.001 c -0.397,-0.539 -0.37,-0.491 -0.425,-0.632 -0.044,-0.123 -0.232,-0.913 -0.229,-1.028 0.003,-0.113 -0.024,-0.355 -0.084,-0.4 -0.059,-0.043 -0.395,-0.272 -0.431,-0.223 -0.036,0.052 -0.324,0.469 -0.454,0.495 -0.132,0.027 -0.339,0.048 -0.255,-0.137 0.084,-0.186 -0.518,-0.091 -0.102,-0.449 l 0.414,-0.359 c 0,0 0.379,-0.325 0.613,-0.375 0.235,-0.055 0.627,-0.023 0.816,0.284 m 1.304,5.839 c 0,0 -2.308,-0.93 -1.366,-3.068 m 0.283,2.338 c 0,0 -0.114,1.422 -0.08,1.984 0.018,0.307 0.347,1.849 0.641,3.179 m 5.605,-2.236 0.276,0.167 m 6.094,-14.31 c 0,0 1.186,-1.339 2.144,-1.561 M -9.301,0.096 c 0.007,0.102 0.882,2.831 2.577,3.531 0.623,0.359 1.347,0.057 1.347,0.057 0.358,-0.154 1.385,0.239 2.553,-0.657 L -1.887,3.32 C -0.28,3.575 0.514,2.188 0.514,1.329 0.514,0.47 -0.657,-0.623 -0.657,-0.623 L -1.854,-1.6 c -0.331,-0.587 -1.572,-1.225 -1.951,-1.485 -0.571,-0.393 -1.179,-0.46 -1.775,-0.336 -1.869,0.388 -3.603,2.664 -3.603,2.664 m -4.711,2.406 c 0,0 0.447,0.579 1.135,0.882 0.164,0.072 3.433,1.786 6.385,1.253 m 3.103,-14.717 c 0,0 -1.077,0.137 -1.866,-0.402 l -0.001,-10e-4 c -0.163,-0.111 -0.315,-0.252 -0.443,-0.431 -0.486,-0.681 -2.48,-2.335 -3.8,-3.398 -0.44,-0.354 -0.806,-0.643 -1.015,-0.808 -0.113,-0.089 -0.5,-0.673 -0.5,-0.673 0,0 0.458,7.394 5.307,13.181 m -3.744,-11.769 c 0,0 -0.261,-2.579 -0.581,-3.342 -0.32,-0.763 -0.545,-1.36 -0.542,-1.659 0.004,-0.294 -0.212,-1.083 -0.308,-1.288 -0.063,-0.133 -0.183,-0.358 -0.25,-0.607 -0.038,-0.139 -0.06,-0.287 -0.045,-0.43 0.038,-0.405 0.061,-0.743 0.354,-0.781 0.293,-0.039 0.742,0.061 0.742,0.061 0,0 0.414,-0.152 0.623,-0.165 0.211,-0.012 0.462,-0.05 0.615,0.046 0.154,0.098 0.456,0.205 0.588,0.304 0.132,0.098 0.513,0.432 0.505,0.687 -0.004,0.255 -0.628,1.135 -0.628,1.135 0,0 -0.031,0.106 -0.069,0.27 -0.09,0.4 -0.215,1.143 -0.011,1.551 0.288,0.574 3.441,4.965 3.227,8.081 m -4.914,7.469 c -0.036,-0.25 -0.416,-1.661 -0.454,-1.956 -0.039,-0.292 -0.076,-0.588 0.069,-0.952 0.147,-0.37 0.345,-1.289 0.321,-1.69 -0.024,-0.397 -0.213,-1.464 -0.356,-2.066 -0.026,-0.113 -0.048,-0.205 -0.066,-0.28 l -0.075,-0.325 -0.531,-1.139 c 0,0 -0.879,-1.701 -1.029,-2.094 -0.151,-0.393 -0.864,-1.722 -0.131,-3.601 l 0.291,-1.07 c 0.497,-1.549 0.672,-1.685 1.235,-1.779 m -6.37,18.848 c 0,0 -0.232,0.168 -0.166,0.405 0.066,0.237 -0.183,0.682 0.012,0.788 0.13,0.073 0.148,0.42 0.299,0.675 0.076,0.128 0.185,0.232 0.358,0.268 0.522,0.103 0.312,0.598 0.695,0.713 0.386,0.114 0.728,0.401 0.866,0.393 0.137,-0.009 0.631,0.2 0.771,0.23 0.063,0.01 0.23,0.037 0.404,0.055 0.209,0.023 0.428,0.034 0.49,-0.006 0.068,-0.045 0.324,-0.163 0.562,-0.256 0.175,-0.069 0.339,-0.124 0.411,-0.129 0.172,-0.01 0.826,-0.274 0.945,-0.281 0.122,-0.008 0.513,-0.031 0.47,-0.184 -0.045,-0.151 -0.137,-0.283 -0.055,-0.322 0.086,-0.039 0.334,-0.174 0.312,-0.258 -0.022,-0.086 -0.153,-0.268 -0.124,-0.37 0.027,-0.106 0.281,-0.464 0.325,-0.588 0.045,-0.122 0.066,-0.311 -0.024,-0.391 -0.092,-0.082 -0.181,-0.147 -0.116,-0.216 0.064,-0.074 0.02,-0.243 -0.052,-0.308 -0.073,-0.064 -0.171,-0.248 -0.243,-0.331 -0.075,-0.079 -0.283,-0.428 -0.392,-0.506 -0.107,-0.08 -0.415,-0.045 -0.456,-0.179 -0.043,-0.136 -0.464,-0.264 -0.566,-0.258 -0.102,0.006 -0.638,-0.339 -0.729,-0.128 -0.09,0.21 -0.085,0.573 -0.043,0.707 0.043,0.133 0.204,0.243 0.245,0.346 0.039,0.1 0.032,0.253 -0.017,0.31 -0.047,0.053 -0.31,0.277 -0.091,0.5 0.22,0.231 0.647,1.027 0.728,1.247 0.082,0.219 0.01,0.445 -0.038,0.5 -0.049,0.054 -0.596,0.361 -0.681,0.4 -0.084,0.039 -0.778,0.186 -0.934,0.178 -0.154,-0.007 -0.599,0.035 -0.776,-0.076 -0.178,-0.107 -0.617,-0.271 -0.706,-0.334 -0.09,-0.064 -0.436,-0.386 -0.436,-0.386 l -0.489,-0.418 c 0,0 -0.587,-0.564 -0.643,-1.796 -0.013,-0.271 0,-0.576 0.051,-0.914 0,0 0.072,-0.55 0.413,-0.963 0.095,-0.117 0.812,-0.672 0.812,-0.672 0,0 0.289,-0.054 0.356,-0.058 0.07,-0.004 0.27,-0.084 0.362,-0.277 0.09,-0.194 0.304,-0.966 0.74,-0.836 l 0.308,0.29 c 0,0 0.453,-0.179 0.538,-0.219 0.075,-0.038 0.793,-0.394 1.644,0.827 0.088,0.126 0.178,0.269 0.268,0.431 0,0 0.293,0.751 0.612,1.354 0.074,0.034 0.346,0.204 0.433,0.236 0.93,0.341 1.276,1.618 1.276,1.618 0,0 0.007,0.179 -0.007,0.437 m -10.98,-24.57 -0.002,-1.087 m -4.192,2.465 -0.001,-1.101 4.253,-1.435 7.778,2.287 0,1.099 m -12.029,-0.85 4.193,-1.378 7.836,2.228 -4.467,0.918 -2.852,-0.666 -0.284,-0.067 0,0 -4.426,-1.035 -0.001,0 m 7.756,20.022 c 0,0 -0.138,-0.414 -0.285,-0.519 -0.146,-0.103 -0.848,-1.018 -0.716,-1.616 0.133,-0.6 0.438,-1.631 0.438,-1.631 l 0.288,0.034 2.687,0.323 c 0,0 0.183,0.044 0.409,0.13 0.259,0.097 0.575,0.248 0.752,0.448 0.331,0.372 1.269,1.921 1.269,1.921 m -7.895,-16.104 -0.276,-1.973 m 0,0 -0.265,-1.402 0.549,1.469 1.017,2.576 1.248,-3.393 -0.718,4.779 -0.048,0.508 c 0,0 -0.482,-0.038 -0.732,-0.427 -0.249,-0.387 -0.481,-1.222 -0.556,-1.558 -0.064,-0.291 -0.224,-0.561 -0.233,-0.578 l -0.001,-0.001 c -0.302,-0.008 -0.274,0.417 -0.274,0.417 l -0.11,1.819 c -0.1,0.076 -0.173,0.162 -0.226,0.255 -0.188,0.333 -0.118,0.752 -0.113,1.079 0.005,0.419 0.373,0.895 0.648,1.496 0.125,0.273 0.356,1.003 0.571,1.717 0.256,0.853 0.489,1.684 0.489,1.684 0.126,1.036 0.303,1.796 0.492,2.356 0.404,1.194 0.858,1.473 0.957,1.563 0.148,0.131 0.369,0.815 0.369,0.815 m -1.171,-11.139 c 0.228,0.307 0.482,0.825 0.321,1.511 -0.269,1.14 -0.227,1.391 -0.122,1.724 0.067,0.211 1.492,1.908 2.463,3.683 0.104,0.188 0.202,0.377 0.292,0.565 0.395,0.821 0.651,1.626 0.591,2.277 l 0.863,1.843 0.008,0.018 m -3.691,6.096 -1.802,0.864 m 4.911,5.402 c 0,0 -0.315,-1.277 1.439,-2.522 m 3.912,1.267 c 0,0 -0.239,0.449 -0.927,0.94 -0.333,0.238 -0.729,0.475 -1.168,0.653 m -2.277,3.33 c 0,0 1.861,-0.659 3.038,-2.614 0,0 0.434,-0.757 0.437,-1.14 0.002,-0.126 0.002,-0.175 10e-4,-0.183 l 0,-10e-4 m 0,10e-4 C -9.767,4.845 -9.77,4.962 -9.77,4.962 m -7.816,2.917 c 0,0 0.336,-1.187 0.96,-1.351 0,0 0.969,-0.03 1.765,0.57 m 0.244,-2.147 c 0,0 -0.144,-0.662 -0.241,-0.626 -0.096,0.034 -0.369,0.493 -0.369,0.493 l 0.291,1.017 0.128,1.258 0.005,0.058 0.984,1.602 c 0.02,0.11 -0.099,0.693 -0.219,0.801 -0.121,0.104 -0.464,0.491 -0.483,0.633 -0.02,0.142 -0.133,0.612 -0.133,0.612 0,0 -0.725,-0.588 -0.884,-0.679 -0.161,-0.089 -0.688,0.014 -0.83,0.022 -0.139,0.008 -0.469,-0.084 -0.548,-0.248 -0.081,-0.163 -0.365,-0.669 -0.442,-0.777 -0.076,-0.107 -0.164,-0.635 -0.165,-0.89 -0.001,-0.13 -0.06,-0.238 -0.126,-0.338 -0.063,-0.092 -0.131,-0.178 -0.163,-0.264 -0.067,-0.178 0.021,-0.351 0.059,-0.636 0.039,-0.284 -0.017,-0.757 -0.054,-0.898 -0.036,-0.138 -0.276,-0.139 -0.33,-0.136 -0.057,0.004 -0.363,-0.174 -0.363,-0.174 0,0 0.065,0.391 0.087,0.489 0.019,0.097 -0.243,0.66 -0.301,0.847 -0.059,0.187 -0.246,1.561 -0.242,1.859 0.004,0.293 0.322,1.146 0.347,1.3 0.023,0.155 0.244,0.802 0.4,1.073 0.054,0.094 0.16,0.228 0.282,0.367 l 0,0.001 c 0.234,0.267 0.525,0.558 0.623,0.635 0.147,0.116 1.089,0.342 1.089,0.342 0,0 1.12,0.116 1.73,-0.51 0,0 0.687,-0.028 0.885,-0.46 0.199,-0.439 0.578,-1.15 0.538,-1.356 -0.04,-0.21 -0.166,-0.427 -0.144,-0.542 0.021,-0.115 -0.046,-0.772 -0.114,-0.951 -0.008,-0.023 -0.016,-0.045 -0.024,-0.066 -0.054,-0.148 -0.09,-0.271 -0.074,-0.405 0.019,-0.157 0.17,-0.673 0.08,-0.78 -0.091,-0.106 -0.251,-0.21 -0.257,-0.309 -0.006,-0.096 -0.007,-0.561 -0.154,-0.679 -0.149,-0.118 -0.215,-0.296 -0.22,-0.379 -0.005,-0.087 0.128,-0.684 -0.07,-0.94 -0.069,-0.088 -0.134,-0.155 -0.192,-0.2 l 0,-0.001 c -0.056,-0.005 -0.149,0.012 -0.231,-0.054 l -0.155,-0.111 z m -5.176,-2.827 c 0,0 0.495,1.143 0.541,1.212 0,0 0.866,1.298 -0.002,3.476 -0.136,0.338 -0.654,-0.293 -0.68,-0.324 -10e-4,-0.001 -10e-4,-0.002 -10e-4,-0.002 m -2.262,2.417 c 0,0 -0.431,0.769 0.281,1.616 0.712,0.842 0.943,0.955 1.24,0.993 0.298,0.038 0.823,0.107 0.823,0.107 0,0 0.981,0.709 1.926,0.098 m 0,-0.001 c 0.003,-10e-4 0.005,-0.003 0.008,-0.004 m -5.274,-4.397 c 0,0 0.007,0.815 0.231,1.014 0.161,0.143 0.469,0.381 0.782,0.439 0.119,0.022 0.239,0.018 0.353,-0.028 0.413,-0.168 1.576,-0.702 1.875,-1.38 0.185,-0.424 0.132,-0.697 0.014,-0.87 -0.071,-0.104 -0.166,-0.171 -0.248,-0.213 -0.219,-0.114 -0.7,-0.201 -0.7,-0.201 m -5.183,-23.952 c 0,0 -0.222,3.16 -0.133,3.614 m 4.521,12.052 0.057,-2.601 m -4.613,3.516 c 0,0 -2.291,-1.314 -1.836,-4.991 m 7.666,8.553 c 0.006,-0.094 0.143,-0.932 0.139,-0.997 -0.004,-0.06 0.246,-0.691 0.08,-0.831 -0.189,-0.156 -0.468,-0.281 -0.664,-0.379 -1.475,-0.005 -2.281,0.309 -2.281,0.309 m 2.336,-0.333 c -0.032,-0.714 0.315,-0.872 0.371,-0.972 0.055,-0.097 0.131,-0.241 0.131,-0.241 0,0 0.234,-0.035 0.47,0.059 0.236,0.095 0.477,0.337 0.477,0.337 0.375,0.28 0.074,0.553 0.166,0.844 0.092,0.287 -0.178,0.559 -0.178,0.559 0,0 0.105,-0.006 0.111,0.098 0.006,0.106 -0.287,0.336 -0.328,0.358 -0.04,0.023 0.033,0.165 -0.044,0.31 -0.076,0.138 -0.149,0.514 -0.149,0.514 -0.004,0.046 -0.07,0.321 -0.078,0.357 -0.09,0.351 -0.347,0.435 -0.347,0.435 -0.009,0.202 -0.255,0.359 -0.255,0.359 0.059,0.441 -0.377,0.387 -0.429,0.582 -0.052,0.191 -0.446,0.381 -0.446,0.381 -0.164,0.262 -0.633,0.33 -0.633,0.33 -0.156,0.04 -0.854,-0.242 -0.854,-0.242 0,0 -0.266,0.08 -0.591,-0.059 0,0 -0.677,0.156 -1.014,-0.54 0,0 -0.353,-0.237 -0.507,-0.54 0,0 -0.516,-1.524 -0.587,-2.055 -0.077,-0.569 -0.037,-0.447 -0.091,-0.596 -0.094,-0.259 -1.18,-1.216 -0.635,-1.609 0.546,-0.391 0.701,-0.453 0.801,-0.711 0.102,-0.259 1.664,-0.452 2.001,-0.301 0.337,0.151 0.527,1.258 0.527,1.258 0.021,0.251 0.036,0.482 -0.053,0.824 -0.035,0.135 -0.079,0.267 -0.128,0.38 -0.178,0.4 -0.246,0.837 -0.233,1.056 0.014,0.222 -0.125,0.567 -0.271,0.756 -0.147,0.19 -0.367,0.402 -0.311,0.788 0.054,0.39 0.373,0.94 0.545,1.005 0.173,0.061 0.601,0.353 1.434,0.155 0,0 0.32,-0.282 0.38,-0.331 0.061,-0.045 0.31,-0.203 0.481,-0.349 0.17,-0.15 0.231,-0.349 0.238,-0.402 m -9.838,-16.895 c 0,0 0.421,-0.538 1.307,-0.493 l 0,10e-4 c 1.082,0.164 1.883,0.789 2.207,1.302 l 0,0 c 0.444,0.835 0.772,1.977 -0.525,3.613 m 5.311,0.061 c 0,0 -0.356,0.107 -0.349,0.22 m -0.23,-0.524 -0.187,0.151 m -2.107,0.434 c 0,0 0.191,-0.398 0.403,-0.646 0.212,-0.248 0.939,-0.555 1.402,-0.415 0.196,0.059 0.249,0.21 0.363,0.231 0.113,0.022 0.264,0.181 0.407,0.2 0.141,0.02 0.301,0.349 0.301,0.349 0,0 0.472,-0.113 0.489,0.17 0.017,0.28 0.031,0.98 0.031,0.98 0,0 0.379,0.23 0.467,0.76 m -6.082,1.034 c 0,0 -0.217,0.92 0.159,1.094 0,0 0.02,0.018 0.052,0.047 0.069,0.063 0.194,0.178 0.276,0.27 0.122,0.133 0.395,0.459 0.564,0.473 0.17,0.022 0.348,0.177 0.468,0.309 0.122,0.136 0.488,0.62 1.045,0.529 0.557,-0.089 1.793,-0.136 1.954,-0.257 0.162,-0.123 0.919,-0.646 1.031,-0.653 0.042,-0.003 0.149,-0.001 0.276,-0.023 0.216,-0.038 0.491,-0.143 0.596,-0.451 0,0 0.324,-0.244 0.045,-0.65 0,0 0.599,-0.344 0.694,-0.634 0.095,-0.286 0.174,-0.854 -0.343,-1.02 0,0 -0.623,-0.075 -0.735,-0.068 0,0 -0.041,0.255 -0.18,0.294 -0.138,0.034 -0.279,0.043 -0.425,-0.061 -0.146,-0.103 -0.644,-0.41 -0.787,-0.46 -0.144,-0.044 -0.4,-0.087 -0.432,-0.17 -0.034,-0.083 -0.136,-0.274 -0.654,-0.551 -0.004,-0.002 -1.919,-0.436 -1.928,-0.439 m -1.328,-4.224 c 1.427,0.189 1.702,1.959 1.739,2.519 0.006,0.078 -0.128,0.557 -0.128,0.557 0,0 -0.118,0.541 -0.24,1.014 -0.073,0.284 -1.526,2.323 -1.526,2.323 m -2.09,-7.755 c 0,0 0.594,-1.215 0.654,-1.643 0.036,-0.257 0.367,-1.325 0.637,-2.168 0.174,-0.543 0.323,-0.992 0.351,-1.071 0.06,-0.165 0.423,-0.594 0.289,-1.283 -0.009,-0.045 -0.02,-0.091 -0.033,-0.138 -0.032,-0.113 -0.077,-0.233 -0.138,-0.358 -0.48,-0.988 -0.602,-2.076 -3.101,-1.983 l -0.609,0.056 m 1.654,17.387 c 0,0 1.512,-0.392 2.167,-0.848 0.01,-0.008 0.02,-0.014 0.03,-0.022 0.078,-0.057 0.143,-0.116 0.189,-0.174 m -12.242,-11.759 c 0,0 -0.239,-0.213 -0.255,-0.492 -0.017,-0.282 -0.021,-0.815 -0.247,-1.31 -0.227,-0.491 -0.688,-1.619 -0.647,-1.874 0.04,-0.257 0.65,-1.311 0.657,-1.364 0.007,-0.055 0.176,-0.225 0.206,-0.235 0.032,-0.012 0.293,-0.049 0.347,-0.041 0.052,0.007 0.24,-0.026 0.305,-0.008 0.064,0.014 0.236,0.06 0.241,0.144 0.005,0.084 -0.009,0.201 0.055,0.227 0.065,0.028 0.384,0.411 0.27,0.45 -0.113,0.037 -0.311,0.104 -0.412,0.14 -0.104,0.039 -0.241,0.034 -0.297,0.166 -0.056,0.13 -0.115,0.209 -0.065,0.34 0.051,0.137 0.206,0.262 0.306,0.331 0.099,0.068 1.289,0.907 1.477,0.874 0.188,-0.036 0.646,-0.136 0.836,-0.315 0.189,-0.18 1.816,-1.545 2.165,-1.704 0.351,-0.158 1.765,-1.015 2.47,-1.085 0.701,-0.076 1.94,-0.34 2.471,-0.487 0.529,-0.147 1.676,-0.366 2.175,0.208 0.498,0.571 0.724,0.61 0.754,0.968 0.032,0.356 0.209,1.38 -0.087,1.884 -0.297,0.502 -0.581,0.856 -0.581,0.856 m -12.753,4.868 c 0,0 -0.361,-1.543 0.653,-2.487 0.022,-0.021 0.044,-0.041 0.067,-0.061 1.098,-0.938 2.047,-2.009 3.333,-2.62 1.285,-0.616 4.117,-1.739 4.42,-1.844 0.064,-0.021 0.183,-0.066 0.332,-0.127 0.567,-0.228 1.579,-0.673 1.749,-0.839 m -11.033,9.357 c 0,0 0.09,-0.851 0.404,-1.235 0.028,-0.035 0.064,-0.073 0.105,-0.115 0.413,-0.411 1.441,-1.074 2.689,-1.149 1.371,-0.082 2.819,-0.282 3.627,0.479 l 0,0.001 c 0.002,0.001 0.004,0.003 0.005,0.004 m -2.922,6.649 c 0,0 0.118,-0.129 0.311,-0.333 0.619,-0.654 2.002,-2.079 2.644,-2.461 m -0.038,-3.86 c 0.076,-0.916 0.228,-1.703 0.588,-1.999 0,0 0.433,-0.365 0.482,-0.409 0.05,-0.046 0.436,-0.29 0.473,-0.377 0.037,-0.085 0.147,-0.376 0.091,-0.436 -0.057,-0.061 -0.286,-0.184 -0.31,-0.227 -0.023,-0.039 -0.101,-0.267 0.053,-0.351 0,0 0.07,-0.055 0.151,0.046 0.08,0.098 0.198,0.137 0.272,0.151 0.075,0.018 0.465,0.182 0.475,0.352 0.01,0.161 0.017,0.292 0.018,0.304 m 0,10e-4 0,-10e-4 0.647,-1.347 c 0,0 0.195,-0.096 0.252,-0.045 0.055,0.049 0.132,0.107 0.096,0.203 -0.036,0.098 -0.15,0.495 -0.15,0.495 l -0.166,0.57 -0.138,0.345 -0.13,0.39 m 0,0.002 0,-0.002 0.641,-0.853 0.336,-0.567 c 0,0 0.167,-0.192 0.275,-0.144 0.108,0.044 0.237,0.101 0.148,0.328 -0.093,0.227 -0.287,0.682 -0.287,0.682 0,0 -0.283,0.555 -0.546,0.761 l 0.589,-0.226 0.803,-0.512 c 0,0 0.127,0.015 0.173,0.074 0.045,0.061 -0.011,0.172 -0.071,0.238 -0.059,0.066 -0.659,0.807 -0.659,0.807 0,0 -0.262,0.198 -0.396,0.257 0,0 -0.13,0.103 -0.158,0.181 -0.026,0.072 -0.358,0.378 -0.417,0.434 -0.06,0.057 -0.579,0.384 -0.755,0.425 -0.177,0.042 -0.648,0.102 -0.611,0.375 0.039,0.271 0.603,1.609 0.603,1.609 l 0.409,0.832 c 0,0 0.069,0.132 0.164,0.325 0.193,0.395 0.49,1.039 0.506,1.303 0,0 0.993,0.135 1.022,0.613 0.028,0.476 0.381,1.186 -2.483,2.233 0,0 -0.85,-0.57 -1.269,-1.444 -0.21,-0.442 -0.425,-0.962 -0.581,-1.563 -0.154,-0.593 -0.249,-1.265 -0.225,-2.019 0.02,-0.594 0.036,-1.23 0.085,-1.813 m -4.988,4.047 c 0,0 -0.919,0.617 -1.06,0.626 -0.067,0.004 -0.311,0.045 -0.579,0.081 -0.286,0.04 -0.602,0.075 -0.762,0.055 -0.313,-0.037 -1.304,-0.595 -1.367,-1.183 -0.063,-0.588 -0.522,-2.165 0.941,-2.138 0,0 0.558,0.31 0.82,0.55 0.037,0.034 0.068,0.066 0.091,0.097 0.185,0.243 1.262,0.856 1.459,0.844 0.116,-0.008 0.597,0.003 1.009,-0.037 0.284,-0.027 0.535,-0.078 0.61,-0.175 0.184,-0.236 0.304,-1.031 0.411,-1.122 0.108,-0.09 0.965,-0.789 0.965,-0.789 m -0.179,5.443 c 0,0 -0.529,-0.256 -0.997,-0.562 -0.235,-0.153 -0.454,-0.318 -0.585,-0.47 -0.343,-0.397 -0.626,-0.842 -0.708,-1.23 -0.012,-0.056 -0.019,-0.11 -0.023,-0.163 -0.025,-0.418 0.348,-0.778 0.509,-0.903 m 4.747,6.417 -1.329,-0.569 c 0,0 -1.371,-0.34 -1.712,-0.379 -0.339,-0.033 -1.65,-0.322 -1.612,-1.085 0.039,-0.76 -0.091,-1.032 0.179,-1.245 0.268,-0.215 0.514,-0.342 0.514,-0.342 m 8.276,14.294 c 0,0 0.834,-0.593 0.912,-0.885 M -32.07,2.219 c 0,0 -0.151,-0.557 0.013,-0.817 0,0 0.429,-1.203 1.725,-1.299 0.123,-0.011 1.314,-0.056 1.314,-0.056 m 2.303,5.902 0.272,-0.297 m -5.225,3.413 c -0.122,0.32 0.21,0.617 0.355,0.702 0.022,0.013 0.239,0.06 0.239,0.06 -0.003,0.022 -0.006,0.034 -0.008,0.053 -0.029,0.457 1.374,0.682 1.374,0.682 0.04,0.897 2.182,0.516 2.182,0.516 1.011,0.165 2.033,-0.6 2.033,-0.6 0.797,0.152 1.218,-0.806 1.218,-0.806 0.76,-0.227 0.429,-1.318 0.408,-1.417 -0.019,-0.096 -0.017,-0.279 -0.414,-0.34 -0.129,-0.019 -0.278,0.023 -0.429,0.091 -0.315,0.142 -0.361,0.075 -0.817,0.363 l -0.573,0.43 c 0,0 0.043,-0.453 -0.15,-0.641 -0.195,-0.184 -0.264,-0.18 -0.392,-0.173 -0.126,0.008 -0.408,-0.269 -0.584,-0.374 -0.176,-0.101 -0.459,-0.403 -0.898,-0.422 0,0 -0.826,-0.177 -1.058,-0.048 -0.232,0.125 -0.758,-0.112 -0.83,0.09 -0.047,0.128 -0.187,0.321 -0.434,0.479 m -0.293,-2.494 2.043,0.53 0.116,-0.063 0.804,-0.437 c 0,0 0.531,-0.284 0.723,-0.254 0.192,0.031 0.198,0.137 0.203,0.221 0.005,0.083 0.14,0.224 0.205,0.24 0.064,0.017 0.202,0.199 0.202,0.199 0,0 0.253,0.007 0.342,0.064 0.084,0.054 0.211,0.205 0.223,0.219 l 0,0.001 m 0,-0.001 c 0,0 0.316,-0.355 0.408,0.102 0.091,0.458 0.507,1.427 0.582,1.633 0.078,0.206 0.158,0.291 0.158,0.291 m -3.866,-2.305 c 0,0 0.095,-0.756 -0.325,-1.262 -0.068,-0.083 -0.15,-0.159 -0.249,-0.224 l -0.703,-0.466 m -3.329,-2.015 1.071,0.538 0.843,0.423 c 0,0 1.256,0.437 1.945,0.743 l 0,0 c 0.249,0.11 0.423,0.204 0.437,0.253 0.052,0.187 0.043,0.716 0.043,0.716 m -6.912,-0.176 c -0.691,-0.255 -1.408,0.465 -2.074,1.305 -0.668,0.843 -0.159,1.574 0.789,2.613 0.843,0.924 3.405,1.184 3.973,1.228 m -3.036,-8.123 -1.241,0.412 c -0.207,0.056 -1.402,0.548 -1.655,0.564 -0.251,0.014 -0.87,0.26 -1.154,0.445 -0.285,0.19 -0.865,1.067 -0.853,1.279 0.011,0.173 0.096,1.128 0.219,1.836 0.027,0.158 0.056,0.304 0.087,0.426 0.165,0.664 0.728,0.884 1.121,1.114 0.394,0.231 0.825,1.09 1.262,1.361 0.44,0.269 1.592,0.493 2.491,0.694 0.897,0.199 2.618,0.012 2.618,0.012 0,0 0.052,0.002 0.142,0 0.257,-0.007 0.824,-0.057 1.391,-0.34 0.154,-0.077 0.308,-0.17 0.455,-0.284 0.317,-0.247 0.546,-0.537 0.697,-0.845 0.27,-0.552 0.288,-1.165 0.121,-1.697 -0.105,-0.336 -0.272,-0.648 -0.453,-0.91 -0.266,-0.382 -0.562,-0.658 -0.743,-0.749 -0.305,-0.15 -0.604,-0.217 -0.757,-0.673 -0.154,-0.454 -0.386,-1.495 -0.875,-1.931 0,0 -0.078,-0.022 -0.028,-0.232 0.016,-0.061 0.041,-0.138 0.083,-0.236 0.185,-0.432 0.79,-1.608 0.779,-2.495 -0.011,-0.887 0.149,-1.739 0.361,-2.426 0.213,-0.689 0.626,-1.516 0.795,-1.526 0.168,-0.011 0.499,-0.113 0.619,-0.25 0.117,-0.133 0.571,-0.328 0.694,-0.379 0.076,-0.029 0.255,-0.111 0.29,-0.204 0.024,-0.061 -0.014,-0.125 -0.185,-0.182 -0.432,-0.143 -0.805,-0.036 -0.805,-0.036 0,0 -0.225,0.129 -0.299,0.124 -0.074,-0.005 -0.175,-0.106 -0.24,-0.143 -0.06,-0.036 -0.312,-0.105 -0.407,-0.228 0,-0.001 0,-0.001 0,-0.001 -0.009,-0.01 -0.016,-0.021 -0.021,-0.032 m 0.023,0.04 c 0,0 -10e-4,-0.003 -0.002,-0.007 m 0,-0.001 c -0.02,-0.052 -0.126,-0.33 -0.151,-0.425 -0.027,-0.104 -0.09,-0.459 -0.099,-0.605 -0.009,-0.148 0.002,-0.34 -0.108,-0.396 0,0 -0.265,-0.194 -0.413,-0.207 -0.149,-0.011 -0.403,-0.039 -0.545,0.075 -0.14,0.115 -0.297,0.314 -0.438,0.426 -0.029,0.025 -0.061,0.057 -0.092,0.098 -0.118,0.155 -0.226,0.422 -0.172,0.786 0.07,0.461 0.345,0.822 0.352,0.929 0.006,0.104 -0.505,1.444 -0.505,1.444 0,0 -0.781,1.058 -0.912,1.32 -0.1,0.194 -0.544,0.68 -0.841,1.81 -0.101,0.386 -0.186,0.848 -0.233,1.399 0,0 -0.11,0.32 -0.085,0.912 0.006,0.127 0.018,0.268 0.038,0.42 0.113,0.86 0.077,1.98 0.089,2.191 0.003,0.051 0.013,0.153 0.03,0.289 0.052,0.418 0.17,1.15 0.36,1.65 0.251,0.661 1.213,2.27 1.213,2.27 m -1.802,-6.817 c 0,0 -0.063,-0.046 -0.173,-0.125 -0.282,-0.203 -0.87,-0.621 -1.501,-1.038 -0.878,-0.581 -1.633,0.224 -2.077,0.547 -0.446,0.32 -1.392,0 -2.245,-0.12 -0.497,-0.068 -0.928,0.233 -1.241,0.532 -0.224,0.212 -0.387,0.423 -0.47,0.499 -0.201,0.18 -0.362,0.993 -0.14,1.191 0.223,0.198 0.86,0.961 0.86,0.961 0.994,1.798 2.021,2.031 2.021,2.031 M -43.137,1.08 c 0,0 -0.003,-0.002 -0.007,-0.006 -0.071,-0.059 -0.573,-0.537 0.21,-1.73 m 3.083,-0.621 c 0,0 -0.864,-0.892 -0.864,-2.306 0.001,-1.411 0.402,-3.504 0.394,-3.99 -0.005,-0.299 -0.127,-1.033 -0.282,-1.752 -0.096,-0.446 -0.335,-1.44 0.094,-2.513 m -1.069,10.756 c 0,0 -1.272,-0.875 -1.252,-2.988 0.02,-1.967 0.31,-4.669 -0.505,-6.131 -0.06,-0.108 -0.126,-0.212 -0.198,-0.314 0,0 -0.628,-0.739 -0.101,-0.77 0.525,-0.032 0.835,0.01 1.093,-0.28 0.108,-0.123 0.23,-0.242 0.353,-0.306 0,0 0.534,-0.122 1.118,-0.035"
             style="fill:none;stroke:#231f20;stroke-width:0.27500001;stroke-linecap:round;stroke-linejoin:round;stroke-miterlimit:4;stroke-dasharray:none;stroke-opacity:1"
             id="path1558" /></g><g
           id="g1560"
           transform="translate(235.0756,459.1454)"><path
             d="M 0,0 C 0,0 -1.289,-1.029 0.631,-1.602"
             style="fill:none;stroke:#231f20;stroke-width:0.249;stroke-linecap:round;stroke-linejoin:round;stroke-miterlimit:4;stroke-dasharray:none;stroke-opacity:1"
             id="path1562" /></g><g
           id="g1564"
           transform="translate(245.4104,471.0058)"><path
             d="m 0,0 c 0,0 0.341,-1.772 0,-3.721 -0.341,-1.949 0.384,-7.753 0.23,-8.906"
             style="fill:none;stroke:#231f20;stroke-width:0.27500001;stroke-linecap:round;stroke-linejoin:round;stroke-miterlimit:4;stroke-dasharray:none;stroke-opacity:1"
             id="path1566" /></g></g><g
         id="g1568"
         transform="translate(241.2887,476.0793)"><path
           d="M 0,0 1.101,1.101"
           style="fill:none;stroke:#231f20;stroke-width:0.27500001;stroke-linecap:round;stroke-linejoin:round;stroke-miterlimit:4;stroke-dasharray:none;stroke-opacity:1"
           id="path1570" /></g><g
         id="g1572"><g
           id="g1574"
           clip-path="url(#clipPath1576)"><g
             id="g1580"
             transform="translate(236.6037,468.5331)"><path
               d="m 0,0 c 0,0 -0.051,-0.864 0.094,-2.104 m 3.113,-6.211 c 1.484,-1.675 3.118,-3.369 3.118,-3.369 M -1.757,2.795 0.744,2.921 c 0,0 0.544,0.066 0.896,0.285 m -3.772,0.639 c 0,0 -0.148,-0.915 -0.363,-1.481 m -9.392,6.273 c 0.41,0.205 0.472,0.467 0.472,0.467 0,0 -0.598,0.427 -0.949,0.573 -0.351,0.146 0.003,0.425 0.003,0.425 m 10.25,-2.598 c 0,0 1.804,0.362 1.884,-1.579 m -22.577,-9.122 c 0,0 0.572,0.694 1.886,0.694 0,0 0.563,0.027 1.014,0.027 m 3.179,-2.997 c -0.139,-0.529 -0.143,-1.141 -0.559,-2.236 0,0 -0.213,-0.575 -0.46,-1.081 -0.179,-0.621 -1.64,-1.889 -1.64,-1.889 m 5.216,15.267 c 0,0 2.255,-0.509 2.748,1.101 M -26.061,4.315 c 0,0 -0.122,-1.032 0.182,-2.489 0.303,-1.457 0.728,-2.793 0.728,-2.793 m 5.898,-0.256 c 0,0 2.322,-0.911 2.673,-2.013 m 5.785,3.098 c 0,0 0.991,3.058 1.611,3.306"
               style="fill:none;stroke:#231f20;stroke-width:0.27500001;stroke-linecap:round;stroke-linejoin:round;stroke-miterlimit:4;stroke-dasharray:none;stroke-opacity:1"
               id="path1582" /></g></g></g><g
         id="g1584"
         transform="translate(220.3135,465.6172)"><path
           d="M 0,0 -0.266,-0.224"
           style="fill:none;stroke:#231f20;stroke-width:0.27500001;stroke-linecap:round;stroke-linejoin:round;stroke-miterlimit:4;stroke-dasharray:none;stroke-opacity:1"
           id="path1586" /></g></g></g></svg>